<svg width="149" height="64" viewBox="0 0 149 64" fill="none" xmlns="http://www.w3.org/2000/svg">
<path d="M39.7567 22.645H36.496L36.4784 21.0366H39.3261C39.8065 21.0366 40.2138 20.9663 40.5478 20.8257C40.8876 20.6792 41.1454 20.4712 41.3212 20.2017C41.497 19.9263 41.5849 19.5952 41.5849 19.2085C41.5849 18.7808 41.5028 18.4321 41.3388 18.1626C41.1747 17.8931 40.9228 17.6968 40.5829 17.5737C40.2489 17.4507 39.8212 17.3892 39.2997 17.3892H37.164V28.4282H34.9579V15.6313H39.2997C40.0028 15.6313 40.6298 15.6987 41.1806 15.8335C41.7372 15.9683 42.2089 16.1792 42.5956 16.4663C42.9882 16.7476 43.2841 17.105 43.4833 17.5386C43.6884 17.9722 43.7909 18.4878 43.7909 19.0854C43.7909 19.6128 43.6649 20.0962 43.413 20.5356C43.161 20.9692 42.789 21.3237 42.2968 21.5991C41.8046 21.8745 41.1923 22.0386 40.4599 22.0913L39.7567 22.645ZM39.6601 28.4282H35.8017L36.7948 26.6792H39.6601C40.1581 26.6792 40.5741 26.5972 40.9081 26.4331C41.2421 26.2632 41.4911 26.0317 41.6552 25.7388C41.8251 25.4399 41.9101 25.0913 41.9101 24.6929C41.9101 24.2769 41.8368 23.9165 41.6903 23.6118C41.5438 23.3013 41.3124 23.064 40.996 22.8999C40.6796 22.73 40.2665 22.645 39.7567 22.645H37.2782L37.2958 21.0366H40.5214L41.0224 21.6431C41.7255 21.6665 42.3026 21.8218 42.7538 22.1089C43.2108 22.396 43.5507 22.7681 43.7733 23.2251C43.996 23.6821 44.1073 24.1743 44.1073 24.7017C44.1073 25.5161 43.9286 26.1987 43.5712 26.7495C43.2196 27.3003 42.7128 27.7192 42.0507 28.0063C41.3886 28.2876 40.5917 28.4282 39.6601 28.4282ZM49.5924 28.604C48.8893 28.604 48.2535 28.4897 47.6852 28.2612C47.1227 28.0269 46.6422 27.7017 46.2438 27.2856C45.8512 26.8696 45.5494 26.3804 45.3385 25.8179C45.1276 25.2554 45.0221 24.6489 45.0221 23.9985V23.647C45.0221 22.9028 45.1305 22.229 45.3473 21.6255C45.5641 21.022 45.8658 20.5063 46.2526 20.0786C46.6393 19.645 47.0963 19.314 47.6237 19.0854C48.151 18.8569 48.7223 18.7427 49.3375 18.7427C50.0172 18.7427 50.6119 18.8569 51.1217 19.0854C51.6315 19.314 52.0533 19.6362 52.3873 20.0522C52.7272 20.4624 52.9791 20.9517 53.1432 21.52C53.3131 22.0884 53.3981 22.7153 53.3981 23.4009V24.3062H46.0504V22.7856H51.3063V22.6187C51.2945 22.2378 51.2184 21.8804 51.0778 21.5464C50.943 21.2124 50.735 20.9429 50.4537 20.7378C50.1725 20.5327 49.7975 20.4302 49.3287 20.4302C48.9772 20.4302 48.6637 20.5063 48.3883 20.6587C48.1188 20.8052 47.8932 21.019 47.7115 21.3003C47.5299 21.5815 47.3893 21.9214 47.2897 22.3198C47.1959 22.7124 47.149 23.1548 47.149 23.647V23.9985C47.149 24.4146 47.2047 24.8013 47.316 25.1587C47.4332 25.5103 47.6031 25.8179 47.8258 26.0815C48.0485 26.3452 48.318 26.5532 48.6344 26.7056C48.9508 26.8521 49.3112 26.9253 49.7154 26.9253C50.2252 26.9253 50.6793 26.8228 51.0778 26.6177C51.4762 26.4126 51.8219 26.1226 52.1149 25.7476L53.2311 26.8286C53.026 27.1274 52.7594 27.4146 52.4313 27.6899C52.1031 27.9595 51.7018 28.1792 51.2272 28.3491C50.7584 28.519 50.2135 28.604 49.5924 28.604ZM59.6654 25.853C59.6654 25.6421 59.6126 25.4517 59.5072 25.2817C59.4017 25.106 59.1995 24.9478 58.9007 24.8071C58.6078 24.6665 58.1742 24.5376 57.5999 24.4204C57.096 24.3091 56.6331 24.1772 56.2113 24.0249C55.7953 23.8667 55.4378 23.6763 55.139 23.4536C54.8402 23.231 54.6087 22.9673 54.4447 22.6626C54.2806 22.3579 54.1986 22.0063 54.1986 21.6079C54.1986 21.2212 54.2835 20.855 54.4535 20.5093C54.6234 20.1636 54.8665 19.8589 55.1829 19.5952C55.4994 19.3315 55.8831 19.1235 56.3343 18.9712C56.7913 18.8188 57.3011 18.7427 57.8636 18.7427C58.6605 18.7427 59.3431 18.8774 59.9115 19.147C60.4857 19.4106 60.9251 19.771 61.2298 20.228C61.5345 20.6792 61.6869 21.189 61.6869 21.7573H59.5687C59.5687 21.5054 59.5042 21.271 59.3753 21.0542C59.2523 20.8315 59.0648 20.6528 58.8128 20.5181C58.5609 20.3774 58.2445 20.3071 57.8636 20.3071C57.5003 20.3071 57.1986 20.3657 56.9583 20.4829C56.724 20.5942 56.5482 20.7407 56.431 20.9224C56.3197 21.104 56.264 21.3032 56.264 21.52C56.264 21.6782 56.2933 21.8218 56.3519 21.9507C56.4163 22.0737 56.5218 22.188 56.6683 22.2935C56.8148 22.3931 57.014 22.4868 57.266 22.5747C57.5238 22.6626 57.846 22.7476 58.2328 22.8296C58.9593 22.9819 59.5833 23.1782 60.1048 23.4185C60.6322 23.6528 61.0365 23.9575 61.3177 24.3325C61.599 24.7017 61.7396 25.1704 61.7396 25.7388C61.7396 26.1606 61.6488 26.5474 61.4671 26.8989C61.2913 27.2446 61.0335 27.5464 60.6937 27.8042C60.3538 28.0562 59.9466 28.2524 59.472 28.3931C59.0033 28.5337 58.4759 28.604 57.89 28.604C57.0287 28.604 56.2992 28.4517 55.7015 28.147C55.1038 27.8364 54.6497 27.4409 54.3392 26.9604C54.0345 26.4741 53.8822 25.9702 53.8822 25.4487H55.93C55.9535 25.8413 56.0619 26.1548 56.2552 26.3892C56.4544 26.6177 56.7005 26.7847 56.9935 26.8901C57.2923 26.9897 57.5999 27.0396 57.9163 27.0396C58.2972 27.0396 58.6165 26.9897 58.8744 26.8901C59.1322 26.7847 59.3285 26.644 59.4632 26.4683C59.598 26.2866 59.6654 26.0815 59.6654 25.853ZM67.2335 18.9185V20.4653H61.8721V18.9185H67.2335ZM63.419 16.5894H65.5372V25.8003C65.5372 26.0933 65.5782 26.3188 65.6602 26.4771C65.7481 26.6294 65.8682 26.7319 66.0206 26.7847C66.1729 26.8374 66.3516 26.8638 66.5567 26.8638C66.7032 26.8638 66.8438 26.855 66.9786 26.8374C67.1133 26.8198 67.2217 26.8022 67.3038 26.7847L67.3126 28.4019C67.1368 28.4546 66.9317 28.5015 66.6973 28.5425C66.4688 28.5835 66.2051 28.604 65.9063 28.604C65.42 28.604 64.9893 28.519 64.6143 28.3491C64.2393 28.1733 63.9463 27.8892 63.7354 27.4966C63.5245 27.104 63.419 26.5825 63.419 25.9321V16.5894ZM72.1216 15.6313H76.6479C77.6206 15.6313 78.4497 15.7778 79.1353 16.0708C79.8208 16.3638 80.3452 16.7974 80.7085 17.3716C81.0776 17.9399 81.2622 18.6431 81.2622 19.481C81.2622 20.1196 81.145 20.6821 80.9106 21.1685C80.6763 21.6548 80.3452 22.0649 79.9175 22.3989C79.4897 22.7271 78.98 22.9819 78.3882 23.1636L77.7202 23.4888H73.6509L73.6333 21.7397H76.6831C77.2104 21.7397 77.6499 21.646 78.0015 21.4585C78.353 21.271 78.6167 21.0161 78.7925 20.6938C78.9741 20.3657 79.0649 19.9966 79.0649 19.5864C79.0649 19.1411 78.9771 18.7544 78.8013 18.4263C78.6313 18.0923 78.3677 17.8374 78.0103 17.6616C77.6528 17.48 77.1987 17.3892 76.6479 17.3892H74.3276V28.4282H72.1216V15.6313ZM79.4253 28.4282L76.4194 22.6802L78.731 22.6714L81.7808 28.314V28.4282H79.4253ZM86.7209 28.604C86.0178 28.604 85.382 28.4897 84.8137 28.2612C84.2512 28.0269 83.7707 27.7017 83.3723 27.2856C82.9797 26.8696 82.6779 26.3804 82.467 25.8179C82.2561 25.2554 82.1506 24.6489 82.1506 23.9985V23.647C82.1506 22.9028 82.259 22.229 82.4758 21.6255C82.6926 21.022 82.9944 20.5063 83.3811 20.0786C83.7678 19.645 84.2248 19.314 84.7522 19.0854C85.2795 18.8569 85.8508 18.7427 86.466 18.7427C87.1457 18.7427 87.7404 18.8569 88.2502 19.0854C88.76 19.314 89.1819 19.6362 89.5158 20.0522C89.8557 20.4624 90.1076 20.9517 90.2717 21.52C90.4416 22.0884 90.5266 22.7153 90.5266 23.4009V24.3062H83.1789V22.7856H88.4348V22.6187C88.4231 22.2378 88.3469 21.8804 88.2063 21.5464C88.0715 21.2124 87.8635 20.9429 87.5822 20.7378C87.301 20.5327 86.926 20.4302 86.4572 20.4302C86.1057 20.4302 85.7922 20.5063 85.5168 20.6587C85.2473 20.8052 85.0217 21.019 84.8401 21.3003C84.6584 21.5815 84.5178 21.9214 84.4182 22.3198C84.3244 22.7124 84.2776 23.1548 84.2776 23.647V23.9985C84.2776 24.4146 84.3332 24.8013 84.4445 25.1587C84.5617 25.5103 84.7317 25.8179 84.9543 26.0815C85.177 26.3452 85.4465 26.5532 85.7629 26.7056C86.0793 26.8521 86.4397 26.9253 86.844 26.9253C87.3537 26.9253 87.8078 26.8228 88.2063 26.6177C88.6047 26.4126 88.9504 26.1226 89.2434 25.7476L90.3596 26.8286C90.1545 27.1274 89.8879 27.4146 89.5598 27.6899C89.2317 27.9595 88.8303 28.1792 88.3557 28.3491C87.8869 28.519 87.342 28.604 86.7209 28.604ZM93.5595 20.9487V28.4282H91.4413V18.9185H93.4365L93.5595 20.9487ZM93.1816 23.3218L92.496 23.313C92.5019 22.6392 92.5956 22.021 92.7773 21.4585C92.9648 20.896 93.2226 20.4126 93.5507 20.0083C93.8847 19.604 94.2831 19.2935 94.746 19.0767C95.2089 18.854 95.7245 18.7427 96.2929 18.7427C96.7499 18.7427 97.163 18.8071 97.5322 18.936C97.9072 19.0591 98.2265 19.2612 98.4902 19.5425C98.7597 19.8237 98.9648 20.1899 99.1054 20.6411C99.246 21.0864 99.3163 21.6343 99.3163 22.2847V28.4282H97.1894V22.2759C97.1894 21.8188 97.122 21.4585 96.9872 21.1948C96.8583 20.9253 96.6679 20.7349 96.416 20.6235C96.1699 20.5063 95.8622 20.4478 95.4931 20.4478C95.1298 20.4478 94.8046 20.5239 94.5175 20.6763C94.2304 20.8286 93.9872 21.0366 93.788 21.3003C93.5947 21.564 93.4453 21.8687 93.3398 22.2144C93.2343 22.5601 93.1816 22.9292 93.1816 23.3218ZM105.118 18.9185V20.4653H99.7565V18.9185H105.118ZM101.303 16.5894H103.422V25.8003C103.422 26.0933 103.463 26.3188 103.545 26.4771C103.632 26.6294 103.753 26.7319 103.905 26.7847C104.057 26.8374 104.236 26.8638 104.441 26.8638C104.588 26.8638 104.728 26.855 104.863 26.8374C104.998 26.8198 105.106 26.8022 105.188 26.7847L105.197 28.4019C105.021 28.4546 104.816 28.5015 104.582 28.5425C104.353 28.5835 104.09 28.604 103.791 28.604C103.304 28.604 102.874 28.519 102.499 28.3491C102.124 28.1733 101.831 27.8892 101.62 27.4966C101.409 27.104 101.303 26.5825 101.303 25.9321V16.5894ZM111.394 26.521V21.9858C111.394 21.646 111.332 21.353 111.209 21.1069C111.086 20.8608 110.899 20.6704 110.647 20.5356C110.401 20.4009 110.09 20.3335 109.715 20.3335C109.37 20.3335 109.071 20.3921 108.819 20.5093C108.567 20.6265 108.37 20.7847 108.23 20.9839C108.089 21.1831 108.019 21.4087 108.019 21.6606H105.91C105.91 21.2856 106 20.9224 106.182 20.5708C106.364 20.2192 106.627 19.9058 106.973 19.6304C107.319 19.355 107.732 19.1382 108.212 18.98C108.693 18.8218 109.232 18.7427 109.829 18.7427C110.544 18.7427 111.177 18.8628 111.728 19.103C112.285 19.3433 112.721 19.7065 113.037 20.1929C113.36 20.6733 113.521 21.2769 113.521 22.0034V26.231C113.521 26.6646 113.55 27.0542 113.609 27.3999C113.673 27.7397 113.764 28.0356 113.881 28.2876V28.4282H111.71C111.611 28.1997 111.532 27.9097 111.473 27.5581C111.42 27.2007 111.394 26.855 111.394 26.521ZM111.702 22.645L111.719 23.9546H110.199C109.806 23.9546 109.46 23.9927 109.161 24.0688C108.863 24.1392 108.614 24.2446 108.414 24.3853C108.215 24.5259 108.066 24.6958 107.966 24.895C107.867 25.0942 107.817 25.3198 107.817 25.5718C107.817 25.8237 107.875 26.0552 107.993 26.2661C108.11 26.4712 108.28 26.6323 108.502 26.7495C108.731 26.8667 109.006 26.9253 109.328 26.9253C109.762 26.9253 110.14 26.8374 110.462 26.6616C110.79 26.48 111.048 26.2603 111.236 26.0024C111.423 25.7388 111.523 25.4897 111.535 25.2554L112.22 26.1958C112.15 26.436 112.03 26.6938 111.86 26.9692C111.69 27.2446 111.467 27.5083 111.192 27.7603C110.922 28.0063 110.597 28.2085 110.216 28.3667C109.841 28.5249 109.408 28.604 108.915 28.604C108.294 28.604 107.741 28.481 107.254 28.2349C106.768 27.9829 106.387 27.646 106.112 27.2241C105.836 26.7964 105.699 26.313 105.699 25.7739C105.699 25.27 105.792 24.8247 105.98 24.438C106.173 24.0454 106.454 23.7173 106.824 23.4536C107.199 23.1899 107.656 22.9907 108.195 22.856C108.734 22.7153 109.349 22.645 110.04 22.645H111.702ZM117.283 14.9282V28.4282H115.156V14.9282H117.283ZM50.3314 47.5542L52.8802 37.6313H54.2162L54.0667 40.189L51.3421 50.4282H49.9535L50.3314 47.5542ZM48.4242 37.6313L50.4896 47.4751L50.6742 50.4282H49.1976L46.2357 37.6313H48.4242ZM57.1078 47.4487L59.1468 37.6313H61.3441L58.3822 50.4282H56.9056L57.1078 47.4487ZM54.7347 37.6313L57.2572 47.5806L57.6263 50.4282H56.2376L53.557 40.189L53.4163 37.6313H54.7347ZM65.959 50.604C65.2559 50.604 64.6202 50.4897 64.0518 50.2612C63.4893 50.0269 63.0088 49.7017 62.6104 49.2856C62.2178 48.8696 61.9161 48.3804 61.7051 47.8179C61.4942 47.2554 61.3887 46.6489 61.3887 45.9985V45.647C61.3887 44.9028 61.4971 44.229 61.7139 43.6255C61.9307 43.022 62.2325 42.5063 62.6192 42.0786C63.0059 41.645 63.4629 41.314 63.9903 41.0854C64.5176 40.8569 65.0889 40.7427 65.7042 40.7427C66.3838 40.7427 66.9786 40.8569 67.4883 41.0854C67.9981 41.314 68.42 41.6362 68.754 42.0522C69.0938 42.4624 69.3458 42.9517 69.5098 43.52C69.6797 44.0884 69.7647 44.7153 69.7647 45.4009V46.3062H62.417V44.7856H67.6729V44.6187C67.6612 44.2378 67.585 43.8804 67.4444 43.5464C67.3096 43.2124 67.1016 42.9429 66.8204 42.7378C66.5391 42.5327 66.1641 42.4302 65.6954 42.4302C65.3438 42.4302 65.0303 42.5063 64.7549 42.6587C64.4854 42.8052 64.2598 43.019 64.0782 43.3003C63.8965 43.5815 63.7559 43.9214 63.6563 44.3198C63.5626 44.7124 63.5157 45.1548 63.5157 45.647V45.9985C63.5157 46.4146 63.5713 46.8013 63.6827 47.1587C63.7999 47.5103 63.9698 47.8179 64.1924 48.0815C64.4151 48.3452 64.6846 48.5532 65.001 48.7056C65.3174 48.8521 65.6778 48.9253 66.0821 48.9253C66.5919 48.9253 67.046 48.8228 67.4444 48.6177C67.8428 48.4126 68.1885 48.1226 68.4815 47.7476L69.5977 48.8286C69.3926 49.1274 69.126 49.4146 68.7979 49.6899C68.4698 49.9595 68.0684 50.1792 67.5938 50.3491C67.1251 50.519 66.5801 50.604 65.959 50.604ZM70.7058 36.9282H72.824V48.3979L72.6219 50.4282H70.7058V36.9282ZM79.0291 45.5854V45.77C79.0291 46.4731 78.95 47.1206 78.7918 47.7124C78.6394 48.2983 78.4051 48.8081 78.0887 49.2417C77.7781 49.6753 77.3914 50.0122 76.9285 50.2524C76.4715 50.4868 75.9412 50.604 75.3377 50.604C74.7459 50.604 74.2303 50.4927 73.7908 50.27C73.3513 50.0474 72.9822 49.731 72.6834 49.3208C72.3904 48.9106 72.1531 48.4214 71.9715 47.853C71.7898 47.2847 71.6609 46.6577 71.5847 45.9722V45.3833C71.6609 44.6919 71.7898 44.0649 71.9715 43.5024C72.1531 42.9341 72.3904 42.4448 72.6834 42.0347C72.9822 41.6187 73.3484 41.2993 73.782 41.0767C74.2215 40.854 74.7342 40.7427 75.3201 40.7427C75.9295 40.7427 76.4656 40.8599 76.9285 41.0942C77.3972 41.3286 77.7869 41.6626 78.0974 42.0962C78.408 42.5239 78.6394 43.0337 78.7918 43.6255C78.95 44.2173 79.0291 44.8706 79.0291 45.5854ZM76.9109 45.77V45.5854C76.9109 45.1577 76.8758 44.7563 76.8055 44.3813C76.7351 44.0005 76.618 43.6665 76.4539 43.3794C76.2957 43.0923 76.0789 42.8667 75.8035 42.7026C75.534 42.5327 75.1971 42.4478 74.7928 42.4478C74.4178 42.4478 74.0955 42.5122 73.826 42.6411C73.5564 42.77 73.3308 42.9458 73.1492 43.1685C72.9676 43.3911 72.824 43.6489 72.7185 43.9419C72.6189 44.2349 72.5515 44.5513 72.5164 44.8911V46.4819C72.5691 46.9214 72.6805 47.3257 72.8504 47.6948C73.0262 48.0581 73.2722 48.3511 73.5887 48.5737C73.9051 48.7905 74.3123 48.8989 74.8103 48.8989C75.2029 48.8989 75.534 48.8198 75.8035 48.6616C76.073 48.5034 76.2869 48.2837 76.4451 48.0024C76.6092 47.7153 76.7263 47.3813 76.7967 47.0005C76.8728 46.6196 76.9109 46.2095 76.9109 45.77ZM85.437 47.853C85.437 47.6421 85.3843 47.4517 85.2788 47.2817C85.1733 47.106 84.9712 46.9478 84.6724 46.8071C84.3794 46.6665 83.9458 46.5376 83.3716 46.4204C82.8677 46.3091 82.4048 46.1772 81.9829 46.0249C81.5669 45.8667 81.2095 45.6763 80.9106 45.4536C80.6118 45.231 80.3804 44.9673 80.2163 44.6626C80.0522 44.3579 79.9702 44.0063 79.9702 43.6079C79.9702 43.2212 80.0552 42.855 80.2251 42.5093C80.395 42.1636 80.6382 41.8589 80.9546 41.5952C81.271 41.3315 81.6548 41.1235 82.106 40.9712C82.563 40.8188 83.0728 40.7427 83.6353 40.7427C84.4321 40.7427 85.1147 40.8774 85.6831 41.147C86.2573 41.4106 86.6968 41.771 87.0015 42.228C87.3062 42.6792 87.4585 43.189 87.4585 43.7573H85.3403C85.3403 43.5054 85.2759 43.271 85.147 43.0542C85.0239 42.8315 84.8364 42.6528 84.5845 42.5181C84.3325 42.3774 84.0161 42.3071 83.6353 42.3071C83.272 42.3071 82.9702 42.3657 82.73 42.4829C82.4956 42.5942 82.3198 42.7407 82.2026 42.9224C82.0913 43.104 82.0356 43.3032 82.0356 43.52C82.0356 43.6782 82.0649 43.8218 82.1235 43.9507C82.188 44.0737 82.2935 44.188 82.4399 44.2935C82.5864 44.3931 82.7856 44.4868 83.0376 44.5747C83.2954 44.6626 83.6177 44.7476 84.0044 44.8296C84.731 44.9819 85.355 45.1782 85.8765 45.4185C86.4038 45.6528 86.8081 45.9575 87.0894 46.3325C87.3706 46.7017 87.5112 47.1704 87.5112 47.7388C87.5112 48.1606 87.4204 48.5474 87.2388 48.8989C87.063 49.2446 86.8052 49.5464 86.4653 49.8042C86.1255 50.0562 85.7183 50.2524 85.2437 50.3931C84.7749 50.5337 84.2476 50.604 83.6616 50.604C82.8003 50.604 82.0708 50.4517 81.4731 50.147C80.8755 49.8364 80.4214 49.4409 80.1108 48.9604C79.8062 48.4741 79.6538 47.9702 79.6538 47.4487H81.7017C81.7251 47.8413 81.8335 48.1548 82.0269 48.3892C82.2261 48.6177 82.4722 48.7847 82.7651 48.8901C83.064 48.9897 83.3716 49.0396 83.688 49.0396C84.0688 49.0396 84.3882 48.9897 84.646 48.8901C84.9038 48.7847 85.1001 48.644 85.2349 48.4683C85.3696 48.2866 85.437 48.0815 85.437 47.853ZM90.9133 40.9185V50.4282H88.7863V40.9185H90.9133ZM88.6457 38.4224C88.6457 38.1001 88.7512 37.8335 88.9621 37.6226C89.1789 37.4058 89.4778 37.2974 89.8586 37.2974C90.2336 37.2974 90.5295 37.4058 90.7463 37.6226C90.9631 37.8335 91.0715 38.1001 91.0715 38.4224C91.0715 38.7388 90.9631 39.0024 90.7463 39.2134C90.5295 39.4243 90.2336 39.5298 89.8586 39.5298C89.4778 39.5298 89.1789 39.4243 88.9621 39.2134C88.7512 39.0024 88.6457 38.7388 88.6457 38.4224ZM96.873 40.9185V42.4653H91.5117V40.9185H96.873ZM93.0585 38.5894H95.1767V47.8003C95.1767 48.0933 95.2177 48.3188 95.2997 48.4771C95.3876 48.6294 95.5078 48.7319 95.6601 48.7847C95.8124 48.8374 95.9912 48.8638 96.1962 48.8638C96.3427 48.8638 96.4833 48.855 96.6181 48.8374C96.7529 48.8198 96.8613 48.8022 96.9433 48.7847L96.9521 50.4019C96.7763 50.4546 96.5712 50.5015 96.3369 50.5425C96.1083 50.5835 95.8447 50.604 95.5458 50.604C95.0595 50.604 94.6288 50.519 94.2538 50.3491C93.8788 50.1733 93.5859 49.8892 93.3749 49.4966C93.164 49.104 93.0585 48.5825 93.0585 47.9321V38.5894ZM101.98 50.604C101.277 50.604 100.641 50.4897 100.073 50.2612C99.5104 50.0269 99.0299 49.7017 98.6315 49.2856C98.2389 48.8696 97.9372 48.3804 97.7262 47.8179C97.5153 47.2554 97.4098 46.6489 97.4098 45.9985V45.647C97.4098 44.9028 97.5182 44.229 97.735 43.6255C97.9518 43.022 98.2536 42.5063 98.6403 42.0786C99.027 41.645 99.484 41.314 100.011 41.0854C100.539 40.8569 101.11 40.7427 101.725 40.7427C102.405 40.7427 103 40.8569 103.509 41.0854C104.019 41.314 104.441 41.6362 104.775 42.0522C105.115 42.4624 105.367 42.9517 105.531 43.52C105.701 44.0884 105.786 44.7153 105.786 45.4009V46.3062H98.4381V44.7856H103.694V44.6187C103.682 44.2378 103.606 43.8804 103.465 43.5464C103.331 43.2124 103.123 42.9429 102.841 42.7378C102.56 42.5327 102.185 42.4302 101.716 42.4302C101.365 42.4302 101.051 42.5063 100.776 42.6587C100.507 42.8052 100.281 43.019 100.099 43.3003C99.9176 43.5815 99.777 43.9214 99.6774 44.3198C99.5837 44.7124 99.5368 45.1548 99.5368 45.647V45.9985C99.5368 46.4146 99.5924 46.8013 99.7038 47.1587C99.821 47.5103 99.9909 47.8179 100.214 48.0815C100.436 48.3452 100.706 48.5532 101.022 48.7056C101.339 48.8521 101.699 48.9253 102.103 48.9253C102.613 48.9253 103.067 48.8228 103.465 48.6177C103.864 48.4126 104.21 48.1226 104.503 47.7476L105.619 48.8286C105.414 49.1274 105.147 49.4146 104.819 49.6899C104.491 49.9595 104.09 50.1792 103.615 50.3491C103.146 50.519 102.601 50.604 101.98 50.604Z" fill="url(#paint0_linear_306_449)"/>
<path d="M132.955 1.61548C134.603 3.11856 134.899 5.47717 134.899 5.47717C134.899 5.47717 132.523 5.39868 130.875 3.89538C129.227 2.3923 128.931 0.0336914 128.931 0.0336914C128.931 0.0336914 131.306 0.112409 132.955 1.61548Z" fill="url(#paint1_linear_306_449)"/>
<path d="M121.365 57.0029C119.946 58.8231 119.861 60.9726 119.88 60.9794C119.875 61.0067 122.857 60.1727 124.196 58.1651C125.534 56.1828 124.882 54.1283 124.902 54.1343C124.894 54.154 122.782 55.1996 121.365 57.0029Z" fill="url(#paint2_linear_306_449)"/>
<path d="M123.454 63.3062C120.836 62.8616 119.859 60.8821 119.86 60.9C119.891 60.9096 122.696 60.1001 125.113 60.3842C127.554 60.6812 128.988 62.1974 128.988 62.2136C129.023 62.2216 126.1 63.7613 123.454 63.3062Z" fill="url(#paint3_linear_306_449)"/>
<path d="M126.54 54.7293C125.564 56.7252 125.915 58.8124 125.933 58.8161C125.93 58.8438 128.552 57.5423 129.435 55.3754C130.32 53.2335 129.313 51.3552 129.331 51.3579C129.327 51.3785 127.515 52.75 126.54 54.7293Z" fill="url(#paint4_linear_306_449)"/>
<path d="M129.736 60.4665C127.192 60.4745 125.897 58.7259 125.899 58.7433C125.927 58.7479 128.386 57.499 130.733 57.3659C133.102 57.2412 134.762 58.4637 134.764 58.4795C134.796 58.482 132.308 60.4644 129.736 60.4665Z" fill="url(#paint5_linear_306_449)"/>
<path d="M131.008 51.654C130.455 53.7525 131.192 55.7102 131.209 55.7109C131.21 55.7384 133.455 54.0358 133.904 51.7843C134.358 49.5565 133.046 47.9075 133.063 47.9072C133.062 47.9278 131.564 49.5721 131.008 51.654Z" fill="url(#paint6_linear_306_449)"/>
<path d="M135.147 56.6622C132.718 57.1022 131.158 55.6301 131.161 55.6465C131.188 55.6465 133.287 54.0222 135.52 53.4902C137.775 52.9632 139.604 53.862 139.608 53.8771C139.639 53.8744 137.602 56.2238 135.147 56.6622Z" fill="url(#paint7_linear_306_449)"/>
<path d="M134.736 47.9041C134.581 50.0369 135.655 51.8065 135.671 51.8047C135.675 51.8315 137.529 49.7943 137.566 47.5272C137.612 45.2828 136.049 43.9061 136.065 43.9033C136.067 43.9239 134.896 45.7871 134.736 47.9041Z" fill="url(#paint8_linear_306_449)"/>
<path d="M139.648 52.0474C137.378 52.8937 135.609 51.7339 135.614 51.7497C135.638 51.7456 137.364 49.8089 139.44 48.9028C141.536 47.998 143.479 48.5516 143.484 48.566C143.512 48.5589 141.942 51.1987 139.648 52.0474Z" fill="url(#paint9_linear_306_449)"/>
<path d="M137.697 43.6063C137.917 45.7107 139.275 47.2431 139.29 47.239C139.297 47.2646 140.744 44.9593 140.395 42.7405C140.056 40.543 138.295 39.4735 138.31 39.4683C138.315 39.4884 137.485 41.5168 137.697 43.6063Z" fill="url(#paint10_linear_306_449)"/>
<path d="M143.205 46.7786C141.14 48 139.217 47.1799 139.225 47.1946C139.246 47.1865 140.586 45.0014 142.46 43.7512C144.354 42.4989 146.349 42.695 146.357 42.7082C146.383 42.6966 145.293 45.551 143.205 46.7786Z" fill="url(#paint11_linear_306_449)"/>
<path d="M139.855 38.8878C140.424 40.9067 142.014 42.161 142.027 42.1546C142.038 42.1789 143.062 39.6722 142.35 37.5603C141.651 35.4678 139.749 34.7314 139.762 34.7241C139.771 34.7433 139.295 36.8828 139.855 38.8878Z" fill="url(#paint12_linear_306_449)"/>
<path d="M145.78 41.0127C143.965 42.5722 141.947 42.1107 141.956 42.124C141.976 42.1128 142.915 39.7423 144.543 38.1831C146.188 36.6192 148.176 36.454 148.185 36.4659C148.209 36.4506 147.617 39.4434 145.78 41.0127Z" fill="url(#paint13_linear_306_449)"/>
<path d="M141.18 33.8776C142.074 35.7589 143.84 36.7035 143.852 36.6952C143.866 36.7174 144.453 34.0762 143.404 32.1244C142.37 30.1898 140.383 29.8036 140.395 29.7944C140.407 29.8121 140.298 32.0084 141.18 33.8776Z" fill="url(#paint14_linear_306_449)"/>
<path d="M147.338 34.9038C145.82 36.7594 143.766 36.6658 143.778 36.6775C143.794 36.6636 144.32 34.1713 145.655 32.3438C147.006 30.5092 148.924 29.9882 148.935 29.9987C148.956 29.9802 148.877 33.0355 147.338 34.9038Z" fill="url(#paint15_linear_306_449)"/>
<path d="M141.641 28.7042C142.833 30.4013 144.72 31.0134 144.731 31.0036C144.749 31.0235 144.881 28.315 143.521 26.5708C142.179 24.8414 140.167 24.8135 140.178 24.8027C140.193 24.8185 140.465 27.0174 141.641 28.7042Z" fill="url(#paint16_linear_306_449)"/>
<path d="M147.843 28.6102C146.669 30.7143 144.641 30.9894 144.655 30.9992C144.669 30.983 144.767 28.4321 145.762 26.3829C146.771 24.324 148.555 23.4616 148.568 23.4703C148.587 23.449 149.036 26.4907 147.843 28.6102Z" fill="url(#paint17_linear_306_449)"/>
<path d="M141.207 23.4952C142.668 24.9669 144.619 25.2326 144.627 25.2214C144.649 25.2383 144.313 22.5298 142.67 21.0359C141.047 19.5539 139.069 19.8836 139.078 19.8712C139.097 19.8847 139.762 22.0315 141.207 23.4952Z" fill="url(#paint18_linear_306_449)"/>
<path d="M147.259 22.2889C146.477 24.5882 144.538 25.2236 144.553 25.2314C144.564 25.2133 144.223 22.6671 144.829 20.4481C145.447 18.2174 147.033 17.0362 147.049 17.0431C147.064 17.0193 148.057 19.9717 147.259 22.2889Z" fill="url(#paint19_linear_306_449)"/>
<path d="M139.847 18.3818C141.55 19.5922 143.504 19.5062 143.511 19.4938C143.537 19.5076 142.716 16.8666 140.817 15.6598C138.942 14.462 137.06 15.1395 137.068 15.1263C137.09 15.137 138.163 17.1769 139.847 18.3818Z" fill="url(#paint20_linear_306_449)"/>
<path d="M145.55 16.097C145.21 18.5329 143.423 19.5118 143.44 19.5173C143.448 19.4978 142.654 17.0195 142.822 14.6877C143.001 12.3424 144.322 10.8752 144.34 10.8796C144.353 10.8542 145.905 13.6411 145.55 16.097Z" fill="url(#paint21_linear_306_449)"/>
<path d="M137.526 13.4937C139.442 14.4122 141.339 13.9786 141.345 13.9653C141.374 13.9752 140.053 11.4694 137.928 10.5819C135.829 9.69956 134.107 10.7066 134.113 10.6924C134.139 10.6995 135.633 12.5778 137.526 13.4937Z" fill="url(#paint22_linear_306_449)"/>
<path d="M142.675 10.1935C142.828 12.702 141.258 13.9982 141.278 14.0012C141.284 13.9808 140.022 11.6339 139.702 9.25192C139.393 6.8551 140.38 5.14243 140.4 5.14426C140.41 5.11726 142.537 7.66304 142.675 10.1935Z" fill="url(#paint23_linear_306_449)"/>
<path d="M134.215 8.95996C136.313 9.56151 138.091 8.7927 138.095 8.77875C138.128 8.78447 136.291 6.48168 133.97 5.93916C131.678 5.39825 130.179 6.70753 130.184 6.69265C130.214 6.69654 132.142 8.35796 134.215 8.95996Z" fill="url(#paint24_linear_306_449)"/>
<path d="M138.603 4.73602C139.299 7.24747 138.014 8.82628 138.036 8.82628C138.039 8.80546 136.297 6.65301 135.439 4.28914C134.589 1.90948 135.174 0.000945902 135.195 0.000259461C135.203 -0.0276558 137.92 2.20099 138.603 4.73602Z" fill="url(#paint25_linear_306_449)"/>
<path d="M111.49 61.6394L111.531 61.179C115.346 61.5243 119.148 61.0994 122.833 59.9162C126.423 58.7632 129.748 56.943 132.713 54.5061C138.868 49.4491 142.837 42.2324 143.889 34.1857C144.751 27.5966 144.309 21.7247 142.575 16.7332C140.713 11.3732 137.398 7.1793 132.721 4.26742L132.965 3.875C137.734 6.84408 141.115 11.1192 143.012 16.5815C144.769 21.6415 145.219 27.5844 144.348 34.2456C143.28 42.4092 139.252 49.7315 133.007 54.8633C129.996 57.3375 126.621 59.1854 122.975 60.3564C119.23 61.5588 115.366 61.9904 111.49 61.6394Z" fill="url(#paint26_linear_306_449)"/>
<path d="M16.0462 1.61548C14.3981 3.11856 14.102 5.47717 14.102 5.47717C14.102 5.47717 16.4777 5.39868 18.1259 3.89538C19.774 2.3923 20.0701 0.0336914 20.0701 0.0336914C20.0701 0.0336914 17.6943 0.112409 16.0462 1.61548Z" fill="url(#paint27_linear_306_449)"/>
<path d="M27.6354 57.0029C29.0543 58.8231 29.1399 60.9726 29.1207 60.9794C29.1262 61.0067 26.1436 60.1727 24.8052 58.1651C23.4665 56.1828 24.1186 54.1283 24.0989 54.1343C24.1064 54.154 26.2186 55.1996 27.6354 57.0029Z" fill="url(#paint28_linear_306_449)"/>
<path d="M25.5465 63.3062C28.1643 62.8616 29.1407 60.8821 29.1402 60.9C29.1093 60.9096 26.304 60.1001 23.8871 60.3842C21.4459 60.6812 20.0119 62.1974 20.0117 62.2136C19.9773 62.2216 22.9 63.7613 25.5465 63.3062Z" fill="url(#paint29_linear_306_449)"/>
<path d="M22.4606 54.7293C23.4358 56.7252 23.0857 58.8124 23.0676 58.8161C23.0702 58.8438 20.4484 57.5423 19.5657 55.3754C18.6802 53.2335 19.6876 51.3552 19.6693 51.3579C19.6737 51.3785 21.4854 52.75 22.4606 54.7293Z" fill="url(#paint30_linear_306_449)"/>
<path d="M19.2636 60.4665C21.8085 60.4745 23.1033 58.7259 23.1015 58.7433C23.0729 58.7479 20.6141 57.499 18.2676 57.3659C15.8982 57.2412 14.2384 58.4637 14.2363 58.4795C14.2036 58.482 16.6918 60.4644 19.2636 60.4665Z" fill="url(#paint31_linear_306_449)"/>
<path d="M17.9925 51.654C18.5458 53.7525 17.8088 55.7102 17.7923 55.7109C17.7911 55.7384 15.546 54.0358 15.0969 51.7843C14.6427 49.5565 15.9545 47.9075 15.9375 47.9072C15.9389 47.9278 17.4365 49.5721 17.9925 51.654Z" fill="url(#paint32_linear_306_449)"/>
<path d="M13.8542 56.6622C16.2833 57.1022 17.8431 55.6301 17.8395 55.6465C17.8132 55.6465 15.714 54.0222 13.481 53.4902C11.2263 52.9632 9.39648 53.862 9.39259 53.8771C9.36216 53.8744 11.3993 56.2238 13.8542 56.6622Z" fill="url(#paint33_linear_306_449)"/>
<path d="M14.2638 47.9041C14.4187 50.0369 13.3451 51.8065 13.3296 51.8047C13.3255 51.8315 11.4716 49.7943 11.4336 47.5272C11.3879 45.2828 12.9516 43.9061 12.9356 43.9033C12.9335 43.9239 14.1041 45.7871 14.2638 47.9041Z" fill="url(#paint34_linear_306_449)"/>
<path d="M9.35189 52.0474C11.6213 52.8937 13.3909 51.7339 13.3854 51.7497C13.3614 51.7456 11.6354 49.8089 9.55942 48.9028C7.46303 47.998 5.52088 48.5516 5.51516 48.566C5.48702 48.5589 7.05781 51.1987 9.35189 52.0474Z" fill="url(#paint35_linear_306_449)"/>
<path d="M11.3028 43.6063C11.0829 45.7107 9.72467 47.2431 9.71025 47.239C9.7027 47.2646 8.25592 44.9593 8.60509 42.7405C8.94442 40.543 10.7049 39.4735 10.6903 39.4683C10.6855 39.4884 11.5154 41.5168 11.3028 43.6063Z" fill="url(#paint36_linear_306_449)"/>
<path d="M5.79548 46.7786C7.86052 48 9.78347 47.1799 9.77592 47.1946C9.75441 47.1865 8.41494 45.0014 6.54027 43.7512C4.64661 42.4989 2.65134 42.695 2.64402 42.7082C2.61816 42.6966 3.70733 45.551 5.79548 46.7786Z" fill="url(#paint37_linear_306_449)"/>
<path d="M9.14641 38.8878C8.57667 40.9067 6.98665 42.161 6.97383 42.1546C6.96285 42.1789 5.93843 39.6722 6.6505 37.5603C7.34975 35.4678 9.25211 34.7314 9.23884 34.7241C9.23037 34.7433 9.70632 36.8828 9.14641 38.8878Z" fill="url(#paint38_linear_306_449)"/>
<path d="M3.22033 41.0127C5.03505 42.5722 7.05317 42.1107 7.04379 42.124C7.02457 42.1128 6.0853 39.7423 4.45752 38.1831C2.81212 36.6192 0.82443 36.454 0.815049 36.4659C0.79171 36.4506 1.38364 39.4434 3.22033 41.0127Z" fill="url(#paint39_linear_306_449)"/>
<path d="M7.82043 33.8776C6.92623 35.7589 5.1598 36.7035 5.14813 36.6952C5.13371 36.7174 4.54726 34.0762 5.59637 32.1244C6.63015 30.1898 8.61695 29.8036 8.60505 29.7944C8.59338 29.8121 8.70228 32.0084 7.82043 33.8776Z" fill="url(#paint40_linear_306_449)"/>
<path d="M1.66189 34.9038C3.18007 36.7594 5.23391 36.6658 5.22224 36.6775C5.20577 36.6636 4.67996 34.1713 3.34506 32.3438C1.99437 30.5092 0.0764418 29.9882 0.065001 29.9987C0.044179 29.9802 0.123349 33.0355 1.66189 34.9038Z" fill="url(#paint41_linear_306_449)"/>
<path d="M7.35881 28.7042C6.16715 30.4013 4.27991 31.0134 4.26961 31.0036C4.25153 31.0235 4.11884 28.315 5.47867 26.5708C6.82066 24.8414 8.83328 24.8135 8.82253 24.8027C8.8072 24.8185 8.5356 27.0174 7.35881 28.7042Z" fill="url(#paint42_linear_306_449)"/>
<path d="M1.15638 28.6102C2.33042 30.7143 4.3584 30.9894 4.3449 30.9992C4.33095 30.983 4.2321 28.4321 3.23768 26.3829C2.22884 24.324 0.444326 23.4616 0.431055 23.4703C0.412521 23.449 -0.0366578 26.4907 1.15638 28.6102Z" fill="url(#paint43_linear_306_449)"/>
<path d="M7.79264 23.4952C6.33098 24.9669 4.38059 25.2326 4.37189 25.2214C4.35015 25.2383 4.68651 22.5298 6.32985 21.0359C7.95259 19.5539 9.93069 19.8836 9.92154 19.8712C9.90278 19.8847 9.23691 22.0315 7.79264 23.4952Z" fill="url(#paint44_linear_306_449)"/>
<path d="M1.74071 22.2889C2.52211 24.5882 4.46175 25.2236 4.44642 25.2314C4.43521 25.2133 4.77661 22.6671 4.17071 20.4481C3.55223 18.2174 1.96609 17.0362 1.95053 17.0431C1.93497 17.0193 0.941924 19.9717 1.74071 22.2889Z" fill="url(#paint45_linear_306_449)"/>
<path d="M9.15359 18.3818C7.45007 19.5922 5.49624 19.5062 5.48892 19.4938C5.46352 19.5076 6.28448 16.8666 8.18295 15.6598C10.0583 14.462 11.9401 15.1395 11.9325 15.1263C11.9101 15.137 10.837 17.1769 9.15359 18.3818Z" fill="url(#paint46_linear_306_449)"/>
<path d="M3.45121 16.097C3.79099 18.5329 5.57825 19.5118 5.56063 19.5173C5.5524 19.4978 6.34707 17.0195 6.17889 14.6877C5.9995 12.3424 4.67856 10.8752 4.66094 10.8796C4.64812 10.8542 3.09586 13.6411 3.45121 16.097Z" fill="url(#paint47_linear_306_449)"/>
<path d="M11.4742 13.4937C9.5581 14.4122 7.66102 13.9786 7.65553 13.9653C7.62624 13.9752 8.94741 11.4694 11.0724 10.5819C13.1711 9.69956 14.8936 10.7066 14.8876 10.6924C14.8613 10.6995 13.3672 12.5778 11.4742 13.4937Z" fill="url(#paint48_linear_306_449)"/>
<path d="M6.32494 10.1935C6.17255 12.702 7.74197 13.9982 7.72207 14.0012C7.71658 13.9808 8.97848 11.6339 9.29767 9.25192C9.60749 6.8551 8.61993 5.14243 8.60026 5.14426C8.59019 5.11726 6.46315 7.66304 6.32494 10.1935Z" fill="url(#paint49_linear_306_449)"/>
<path d="M14.7853 8.95996C12.6871 9.56151 10.9092 8.7927 10.9051 8.77875C10.8722 8.78447 12.7091 6.48168 15.0302 5.93916C17.3224 5.39825 18.8209 6.70753 18.8166 6.69265C18.7864 6.69654 16.8582 8.35796 14.7853 8.95996Z" fill="url(#paint50_linear_306_449)"/>
<path d="M10.397 4.73602C9.7014 7.24747 10.9857 8.82628 10.9638 8.82628C10.9613 8.80546 12.7035 6.65301 13.5613 4.28914C14.4115 1.90948 13.8265 0.000945902 13.8047 0.000259461C13.7974 -0.0276558 11.0802 2.20099 10.397 4.73602Z" fill="url(#paint51_linear_306_449)"/>
<path d="M37.511 61.6394L37.4694 61.179C33.6551 61.5243 29.8527 61.0994 26.1676 59.9162C22.5773 58.7632 19.2531 56.943 16.2874 54.5061C10.1331 49.4491 6.16407 42.2324 5.11176 34.1857C4.25005 27.5966 4.6921 21.7247 6.42582 16.7332C8.28744 11.3732 11.6027 7.1793 16.2797 4.26742L16.0353 3.875C11.2664 6.84408 7.88612 11.1192 5.98903 16.5815C4.23151 21.6415 3.78212 27.5844 4.65321 34.2456C5.72085 42.4092 9.74842 49.7315 15.9939 54.8633C19.0048 57.3375 22.3801 59.1854 26.0262 60.3564C29.7707 61.5588 33.6347 61.9904 37.511 61.6394Z" fill="url(#paint52_linear_306_449)"/>
<defs>
<linearGradient id="paint0_linear_306_449" x1="33.5852" y1="33.4282" x2="118.585" y2="33.4282" gradientUnits="userSpaceOnUse">
<stop stop-color="#A57D24"/>
<stop offset="0.2112" stop-color="#D8BE62"/>
<stop offset="0.328" stop-color="#F1DD80"/>
<stop offset="0.7298" stop-color="#F1DD80"/>
<stop offset="1" stop-color="#A57D24"/>
</linearGradient>
<linearGradient id="paint1_linear_306_449" x1="128.931" y1="2.75548" x2="134.899" y2="2.75548" gradientUnits="userSpaceOnUse">
<stop stop-color="#A57D24"/>
<stop offset="0.2112" stop-color="#D8BE62"/>
<stop offset="0.328" stop-color="#F1DD80"/>
<stop offset="0.524" stop-color="#FBF2A8"/>
<stop offset="0.7298" stop-color="#F1DD80"/>
<stop offset="1" stop-color="#A57D24"/>
</linearGradient>
<linearGradient id="paint2_linear_306_449" x1="119.878" y1="57.5573" x2="125.044" y2="57.5573" gradientUnits="userSpaceOnUse">
<stop stop-color="#A57D24"/>
<stop offset="0.2112" stop-color="#D8BE62"/>
<stop offset="0.328" stop-color="#F1DD80"/>
<stop offset="0.524" stop-color="#FBF2A8"/>
<stop offset="0.7298" stop-color="#F1DD80"/>
<stop offset="1" stop-color="#A57D24"/>
</linearGradient>
<linearGradient id="paint3_linear_306_449" x1="119.86" y1="61.857" x2="128.989" y2="61.857" gradientUnits="userSpaceOnUse">
<stop stop-color="#A57D24"/>
<stop offset="0.2112" stop-color="#D8BE62"/>
<stop offset="0.328" stop-color="#F1DD80"/>
<stop offset="0.524" stop-color="#FBF2A8"/>
<stop offset="0.7298" stop-color="#F1DD80"/>
<stop offset="1" stop-color="#A57D24"/>
</linearGradient>
<linearGradient id="paint4_linear_306_449" x1="125.857" y1="55.0872" x2="129.799" y2="55.0872" gradientUnits="userSpaceOnUse">
<stop stop-color="#A57D24"/>
<stop offset="0.2112" stop-color="#D8BE62"/>
<stop offset="0.328" stop-color="#F1DD80"/>
<stop offset="0.524" stop-color="#FBF2A8"/>
<stop offset="0.7298" stop-color="#F1DD80"/>
<stop offset="1" stop-color="#A57D24"/>
</linearGradient>
<linearGradient id="paint5_linear_306_449" x1="125.899" y1="58.9117" x2="134.764" y2="58.9117" gradientUnits="userSpaceOnUse">
<stop stop-color="#A57D24"/>
<stop offset="0.2112" stop-color="#D8BE62"/>
<stop offset="0.328" stop-color="#F1DD80"/>
<stop offset="0.524" stop-color="#FBF2A8"/>
<stop offset="0.7298" stop-color="#F1DD80"/>
<stop offset="1" stop-color="#A57D24"/>
</linearGradient>
<linearGradient id="paint6_linear_306_449" x1="130.803" y1="51.8091" x2="134" y2="51.8091" gradientUnits="userSpaceOnUse">
<stop stop-color="#A57D24"/>
<stop offset="0.2112" stop-color="#D8BE62"/>
<stop offset="0.328" stop-color="#F1DD80"/>
<stop offset="0.524" stop-color="#FBF2A8"/>
<stop offset="0.7298" stop-color="#F1DD80"/>
<stop offset="1" stop-color="#A57D24"/>
</linearGradient>
<linearGradient id="paint7_linear_306_449" x1="131.161" y1="55.0346" x2="139.609" y2="55.0346" gradientUnits="userSpaceOnUse">
<stop stop-color="#A57D24"/>
<stop offset="0.2112" stop-color="#D8BE62"/>
<stop offset="0.328" stop-color="#F1DD80"/>
<stop offset="0.524" stop-color="#FBF2A8"/>
<stop offset="0.7298" stop-color="#F1DD80"/>
<stop offset="1" stop-color="#A57D24"/>
</linearGradient>
<linearGradient id="paint8_linear_306_449" x1="134.721" y1="47.8541" x2="137.568" y2="47.8541" gradientUnits="userSpaceOnUse">
<stop stop-color="#A57D24"/>
<stop offset="0.2112" stop-color="#D8BE62"/>
<stop offset="0.328" stop-color="#F1DD80"/>
<stop offset="0.524" stop-color="#FBF2A8"/>
<stop offset="0.7298" stop-color="#F1DD80"/>
<stop offset="1" stop-color="#A57D24"/>
</linearGradient>
<linearGradient id="paint9_linear_306_449" x1="135.614" y1="50.3711" x2="143.485" y2="50.3711" gradientUnits="userSpaceOnUse">
<stop stop-color="#A57D24"/>
<stop offset="0.2112" stop-color="#D8BE62"/>
<stop offset="0.328" stop-color="#F1DD80"/>
<stop offset="0.524" stop-color="#FBF2A8"/>
<stop offset="0.7298" stop-color="#F1DD80"/>
<stop offset="1" stop-color="#A57D24"/>
</linearGradient>
<linearGradient id="paint10_linear_306_449" x1="137.662" y1="43.3538" x2="140.449" y2="43.3538" gradientUnits="userSpaceOnUse">
<stop stop-color="#A57D24"/>
<stop offset="0.2112" stop-color="#D8BE62"/>
<stop offset="0.328" stop-color="#F1DD80"/>
<stop offset="0.524" stop-color="#FBF2A8"/>
<stop offset="0.7298" stop-color="#F1DD80"/>
<stop offset="1" stop-color="#A57D24"/>
</linearGradient>
<linearGradient id="paint11_linear_306_449" x1="139.225" y1="45.0699" x2="146.357" y2="45.0699" gradientUnits="userSpaceOnUse">
<stop stop-color="#A57D24"/>
<stop offset="0.2112" stop-color="#D8BE62"/>
<stop offset="0.328" stop-color="#F1DD80"/>
<stop offset="0.524" stop-color="#FBF2A8"/>
<stop offset="0.7298" stop-color="#F1DD80"/>
<stop offset="1" stop-color="#A57D24"/>
</linearGradient>
<linearGradient id="paint12_linear_306_449" x1="139.581" y1="38.4395" x2="142.602" y2="38.4395" gradientUnits="userSpaceOnUse">
<stop stop-color="#A57D24"/>
<stop offset="0.2112" stop-color="#D8BE62"/>
<stop offset="0.328" stop-color="#F1DD80"/>
<stop offset="0.524" stop-color="#FBF2A8"/>
<stop offset="0.7298" stop-color="#F1DD80"/>
<stop offset="1" stop-color="#A57D24"/>
</linearGradient>
<linearGradient id="paint13_linear_306_449" x1="141.956" y1="39.3215" x2="148.186" y2="39.3215" gradientUnits="userSpaceOnUse">
<stop stop-color="#A57D24"/>
<stop offset="0.2112" stop-color="#D8BE62"/>
<stop offset="0.328" stop-color="#F1DD80"/>
<stop offset="0.524" stop-color="#FBF2A8"/>
<stop offset="0.7298" stop-color="#F1DD80"/>
<stop offset="1" stop-color="#A57D24"/>
</linearGradient>
<linearGradient id="paint14_linear_306_449" x1="140.395" y1="33.2449" x2="144.028" y2="33.2449" gradientUnits="userSpaceOnUse">
<stop stop-color="#A57D24"/>
<stop offset="0.2112" stop-color="#D8BE62"/>
<stop offset="0.328" stop-color="#F1DD80"/>
<stop offset="0.524" stop-color="#FBF2A8"/>
<stop offset="0.7298" stop-color="#F1DD80"/>
<stop offset="1" stop-color="#A57D24"/>
</linearGradient>
<linearGradient id="paint15_linear_306_449" x1="143.778" y1="33.338" x2="148.938" y2="33.338" gradientUnits="userSpaceOnUse">
<stop stop-color="#A57D24"/>
<stop offset="0.2112" stop-color="#D8BE62"/>
<stop offset="0.328" stop-color="#F1DD80"/>
<stop offset="0.524" stop-color="#FBF2A8"/>
<stop offset="0.7298" stop-color="#F1DD80"/>
<stop offset="1" stop-color="#A57D24"/>
</linearGradient>
<linearGradient id="paint16_linear_306_449" x1="140.178" y1="27.9032" x2="144.742" y2="27.9032" gradientUnits="userSpaceOnUse">
<stop stop-color="#A57D24"/>
<stop offset="0.2112" stop-color="#D8BE62"/>
<stop offset="0.328" stop-color="#F1DD80"/>
<stop offset="0.524" stop-color="#FBF2A8"/>
<stop offset="0.7298" stop-color="#F1DD80"/>
<stop offset="1" stop-color="#A57D24"/>
</linearGradient>
<linearGradient id="paint17_linear_306_449" x1="144.655" y1="27.2346" x2="148.666" y2="27.2346" gradientUnits="userSpaceOnUse">
<stop stop-color="#A57D24"/>
<stop offset="0.2112" stop-color="#D8BE62"/>
<stop offset="0.328" stop-color="#F1DD80"/>
<stop offset="0.524" stop-color="#FBF2A8"/>
<stop offset="0.7298" stop-color="#F1DD80"/>
<stop offset="1" stop-color="#A57D24"/>
</linearGradient>
<linearGradient id="paint18_linear_306_449" x1="139.078" y1="22.5348" x2="144.628" y2="22.5348" gradientUnits="userSpaceOnUse">
<stop stop-color="#A57D24"/>
<stop offset="0.2112" stop-color="#D8BE62"/>
<stop offset="0.328" stop-color="#F1DD80"/>
<stop offset="0.524" stop-color="#FBF2A8"/>
<stop offset="0.7298" stop-color="#F1DD80"/>
<stop offset="1" stop-color="#A57D24"/>
</linearGradient>
<linearGradient id="paint19_linear_306_449" x1="144.467" y1="21.1372" x2="147.569" y2="21.1372" gradientUnits="userSpaceOnUse">
<stop stop-color="#A57D24"/>
<stop offset="0.2112" stop-color="#D8BE62"/>
<stop offset="0.328" stop-color="#F1DD80"/>
<stop offset="0.524" stop-color="#FBF2A8"/>
<stop offset="0.7298" stop-color="#F1DD80"/>
<stop offset="1" stop-color="#A57D24"/>
</linearGradient>
<linearGradient id="paint20_linear_306_449" x1="137.068" y1="17.2237" x2="143.512" y2="17.2237" gradientUnits="userSpaceOnUse">
<stop stop-color="#A57D24"/>
<stop offset="0.2112" stop-color="#D8BE62"/>
<stop offset="0.328" stop-color="#F1DD80"/>
<stop offset="0.524" stop-color="#FBF2A8"/>
<stop offset="0.7298" stop-color="#F1DD80"/>
<stop offset="1" stop-color="#A57D24"/>
</linearGradient>
<linearGradient id="paint21_linear_306_449" x1="142.799" y1="15.1984" x2="145.602" y2="15.1984" gradientUnits="userSpaceOnUse">
<stop stop-color="#A57D24"/>
<stop offset="0.2112" stop-color="#D8BE62"/>
<stop offset="0.328" stop-color="#F1DD80"/>
<stop offset="0.524" stop-color="#FBF2A8"/>
<stop offset="0.7298" stop-color="#F1DD80"/>
<stop offset="1" stop-color="#A57D24"/>
</linearGradient>
<linearGradient id="paint22_linear_306_449" x1="134.113" y1="12.1491" x2="141.345" y2="12.1491" gradientUnits="userSpaceOnUse">
<stop stop-color="#A57D24"/>
<stop offset="0.2112" stop-color="#D8BE62"/>
<stop offset="0.328" stop-color="#F1DD80"/>
<stop offset="0.524" stop-color="#FBF2A8"/>
<stop offset="0.7298" stop-color="#F1DD80"/>
<stop offset="1" stop-color="#A57D24"/>
</linearGradient>
<linearGradient id="paint23_linear_306_449" x1="139.642" y1="9.57246" x2="142.686" y2="9.57246" gradientUnits="userSpaceOnUse">
<stop stop-color="#A57D24"/>
<stop offset="0.2112" stop-color="#D8BE62"/>
<stop offset="0.328" stop-color="#F1DD80"/>
<stop offset="0.524" stop-color="#FBF2A8"/>
<stop offset="0.7298" stop-color="#F1DD80"/>
<stop offset="1" stop-color="#A57D24"/>
</linearGradient>
<linearGradient id="paint24_linear_306_449" x1="130.184" y1="7.49906" x2="138.095" y2="7.49906" gradientUnits="userSpaceOnUse">
<stop stop-color="#A57D24"/>
<stop offset="0.2112" stop-color="#D8BE62"/>
<stop offset="0.328" stop-color="#F1DD80"/>
<stop offset="0.524" stop-color="#FBF2A8"/>
<stop offset="0.7298" stop-color="#F1DD80"/>
<stop offset="1" stop-color="#A57D24"/>
</linearGradient>
<linearGradient id="paint25_linear_306_449" x1="134.979" y1="4.41304" x2="138.81" y2="4.41304" gradientUnits="userSpaceOnUse">
<stop stop-color="#A57D24"/>
<stop offset="0.2112" stop-color="#D8BE62"/>
<stop offset="0.328" stop-color="#F1DD80"/>
<stop offset="0.524" stop-color="#FBF2A8"/>
<stop offset="0.7298" stop-color="#F1DD80"/>
<stop offset="1" stop-color="#A57D24"/>
</linearGradient>
<linearGradient id="paint26_linear_306_449" x1="111.49" y1="32.8163" x2="144.779" y2="32.8163" gradientUnits="userSpaceOnUse">
<stop stop-color="#A57D24"/>
<stop offset="0.2112" stop-color="#D8BE62"/>
<stop offset="0.328" stop-color="#F1DD80"/>
<stop offset="0.524" stop-color="#FBF2A8"/>
<stop offset="0.7298" stop-color="#F1DD80"/>
<stop offset="1" stop-color="#A57D24"/>
</linearGradient>
<linearGradient id="paint27_linear_306_449" x1="20.0702" y1="2.75548" x2="14.1021" y2="2.75548" gradientUnits="userSpaceOnUse">
<stop stop-color="#A57D24"/>
<stop offset="0.2112" stop-color="#D8BE62"/>
<stop offset="0.328" stop-color="#F1DD80"/>
<stop offset="0.524" stop-color="#FBF2A8"/>
<stop offset="0.7298" stop-color="#F1DD80"/>
<stop offset="1" stop-color="#A57D24"/>
</linearGradient>
<linearGradient id="paint28_linear_306_449" x1="29.1227" y1="57.5573" x2="23.957" y2="57.5573" gradientUnits="userSpaceOnUse">
<stop stop-color="#A57D24"/>
<stop offset="0.2112" stop-color="#D8BE62"/>
<stop offset="0.328" stop-color="#F1DD80"/>
<stop offset="0.524" stop-color="#FBF2A8"/>
<stop offset="0.7298" stop-color="#F1DD80"/>
<stop offset="1" stop-color="#A57D24"/>
</linearGradient>
<linearGradient id="paint29_linear_306_449" x1="29.1403" y1="61.857" x2="20.0116" y2="61.857" gradientUnits="userSpaceOnUse">
<stop stop-color="#A57D24"/>
<stop offset="0.2112" stop-color="#D8BE62"/>
<stop offset="0.328" stop-color="#F1DD80"/>
<stop offset="0.524" stop-color="#FBF2A8"/>
<stop offset="0.7298" stop-color="#F1DD80"/>
<stop offset="1" stop-color="#A57D24"/>
</linearGradient>
<linearGradient id="paint30_linear_306_449" x1="23.1434" y1="55.0872" x2="19.2008" y2="55.0872" gradientUnits="userSpaceOnUse">
<stop stop-color="#A57D24"/>
<stop offset="0.2112" stop-color="#D8BE62"/>
<stop offset="0.328" stop-color="#F1DD80"/>
<stop offset="0.524" stop-color="#FBF2A8"/>
<stop offset="0.7298" stop-color="#F1DD80"/>
<stop offset="1" stop-color="#A57D24"/>
</linearGradient>
<linearGradient id="paint31_linear_306_449" x1="23.1014" y1="58.9117" x2="14.236" y2="58.9117" gradientUnits="userSpaceOnUse">
<stop stop-color="#A57D24"/>
<stop offset="0.2112" stop-color="#D8BE62"/>
<stop offset="0.328" stop-color="#F1DD80"/>
<stop offset="0.524" stop-color="#FBF2A8"/>
<stop offset="0.7298" stop-color="#F1DD80"/>
<stop offset="1" stop-color="#A57D24"/>
</linearGradient>
<linearGradient id="paint32_linear_306_449" x1="18.198" y1="51.8091" x2="15.0012" y2="51.8091" gradientUnits="userSpaceOnUse">
<stop stop-color="#A57D24"/>
<stop offset="0.2112" stop-color="#D8BE62"/>
<stop offset="0.328" stop-color="#F1DD80"/>
<stop offset="0.524" stop-color="#FBF2A8"/>
<stop offset="0.7298" stop-color="#F1DD80"/>
<stop offset="1" stop-color="#A57D24"/>
</linearGradient>
<linearGradient id="paint33_linear_306_449" x1="17.8394" y1="55.0346" x2="9.3922" y2="55.0346" gradientUnits="userSpaceOnUse">
<stop stop-color="#A57D24"/>
<stop offset="0.2112" stop-color="#D8BE62"/>
<stop offset="0.328" stop-color="#F1DD80"/>
<stop offset="0.524" stop-color="#FBF2A8"/>
<stop offset="0.7298" stop-color="#F1DD80"/>
<stop offset="1" stop-color="#A57D24"/>
</linearGradient>
<linearGradient id="paint34_linear_306_449" x1="14.279" y1="47.8541" x2="11.4325" y2="47.8541" gradientUnits="userSpaceOnUse">
<stop stop-color="#A57D24"/>
<stop offset="0.2112" stop-color="#D8BE62"/>
<stop offset="0.328" stop-color="#F1DD80"/>
<stop offset="0.524" stop-color="#FBF2A8"/>
<stop offset="0.7298" stop-color="#F1DD80"/>
<stop offset="1" stop-color="#A57D24"/>
</linearGradient>
<linearGradient id="paint35_linear_306_449" x1="13.3853" y1="50.3711" x2="5.51466" y2="50.3711" gradientUnits="userSpaceOnUse">
<stop stop-color="#A57D24"/>
<stop offset="0.2112" stop-color="#D8BE62"/>
<stop offset="0.328" stop-color="#F1DD80"/>
<stop offset="0.524" stop-color="#FBF2A8"/>
<stop offset="0.7298" stop-color="#F1DD80"/>
<stop offset="1" stop-color="#A57D24"/>
</linearGradient>
<linearGradient id="paint36_linear_306_449" x1="11.3377" y1="43.3538" x2="8.55091" y2="43.3538" gradientUnits="userSpaceOnUse">
<stop stop-color="#A57D24"/>
<stop offset="0.2112" stop-color="#D8BE62"/>
<stop offset="0.328" stop-color="#F1DD80"/>
<stop offset="0.524" stop-color="#FBF2A8"/>
<stop offset="0.7298" stop-color="#F1DD80"/>
<stop offset="1" stop-color="#A57D24"/>
</linearGradient>
<linearGradient id="paint37_linear_306_449" x1="9.77592" y1="45.0699" x2="2.64344" y2="45.0699" gradientUnits="userSpaceOnUse">
<stop stop-color="#A57D24"/>
<stop offset="0.2112" stop-color="#D8BE62"/>
<stop offset="0.328" stop-color="#F1DD80"/>
<stop offset="0.524" stop-color="#FBF2A8"/>
<stop offset="0.7298" stop-color="#F1DD80"/>
<stop offset="1" stop-color="#A57D24"/>
</linearGradient>
<linearGradient id="paint38_linear_306_449" x1="9.41952" y1="38.4395" x2="6.39888" y2="38.4395" gradientUnits="userSpaceOnUse">
<stop stop-color="#A57D24"/>
<stop offset="0.2112" stop-color="#D8BE62"/>
<stop offset="0.328" stop-color="#F1DD80"/>
<stop offset="0.524" stop-color="#FBF2A8"/>
<stop offset="0.7298" stop-color="#F1DD80"/>
<stop offset="1" stop-color="#A57D24"/>
</linearGradient>
<linearGradient id="paint39_linear_306_449" x1="7.04379" y1="39.3215" x2="0.81434" y2="39.3215" gradientUnits="userSpaceOnUse">
<stop stop-color="#A57D24"/>
<stop offset="0.2112" stop-color="#D8BE62"/>
<stop offset="0.328" stop-color="#F1DD80"/>
<stop offset="0.524" stop-color="#FBF2A8"/>
<stop offset="0.7298" stop-color="#F1DD80"/>
<stop offset="1" stop-color="#A57D24"/>
</linearGradient>
<linearGradient id="paint40_linear_306_449" x1="8.60507" y1="33.2449" x2="4.9718" y2="33.2449" gradientUnits="userSpaceOnUse">
<stop stop-color="#A57D24"/>
<stop offset="0.2112" stop-color="#D8BE62"/>
<stop offset="0.328" stop-color="#F1DD80"/>
<stop offset="0.524" stop-color="#FBF2A8"/>
<stop offset="0.7298" stop-color="#F1DD80"/>
<stop offset="1" stop-color="#A57D24"/>
</linearGradient>
<linearGradient id="paint41_linear_306_449" x1="5.22231" y1="33.338" x2="0.0625983" y2="33.338" gradientUnits="userSpaceOnUse">
<stop stop-color="#A57D24"/>
<stop offset="0.2112" stop-color="#D8BE62"/>
<stop offset="0.328" stop-color="#F1DD80"/>
<stop offset="0.524" stop-color="#FBF2A8"/>
<stop offset="0.7298" stop-color="#F1DD80"/>
<stop offset="1" stop-color="#A57D24"/>
</linearGradient>
<linearGradient id="paint42_linear_306_449" x1="8.82255" y1="27.9032" x2="4.25787" y2="27.9032" gradientUnits="userSpaceOnUse">
<stop stop-color="#A57D24"/>
<stop offset="0.2112" stop-color="#D8BE62"/>
<stop offset="0.328" stop-color="#F1DD80"/>
<stop offset="0.524" stop-color="#FBF2A8"/>
<stop offset="0.7298" stop-color="#F1DD80"/>
<stop offset="1" stop-color="#A57D24"/>
</linearGradient>
<linearGradient id="paint43_linear_306_449" x1="4.34493" y1="27.2346" x2="0.333024" y2="27.2346" gradientUnits="userSpaceOnUse">
<stop stop-color="#A57D24"/>
<stop offset="0.2112" stop-color="#D8BE62"/>
<stop offset="0.328" stop-color="#F1DD80"/>
<stop offset="0.524" stop-color="#FBF2A8"/>
<stop offset="0.7298" stop-color="#F1DD80"/>
<stop offset="1" stop-color="#A57D24"/>
</linearGradient>
<linearGradient id="paint44_linear_306_449" x1="9.92152" y1="22.5348" x2="4.37093" y2="22.5348" gradientUnits="userSpaceOnUse">
<stop stop-color="#A57D24"/>
<stop offset="0.2112" stop-color="#D8BE62"/>
<stop offset="0.328" stop-color="#F1DD80"/>
<stop offset="0.524" stop-color="#FBF2A8"/>
<stop offset="0.7298" stop-color="#F1DD80"/>
<stop offset="1" stop-color="#A57D24"/>
</linearGradient>
<linearGradient id="paint45_linear_306_449" x1="4.53221" y1="21.1372" x2="1.43026" y2="21.1372" gradientUnits="userSpaceOnUse">
<stop stop-color="#A57D24"/>
<stop offset="0.2112" stop-color="#D8BE62"/>
<stop offset="0.328" stop-color="#F1DD80"/>
<stop offset="0.524" stop-color="#FBF2A8"/>
<stop offset="0.7298" stop-color="#F1DD80"/>
<stop offset="1" stop-color="#A57D24"/>
</linearGradient>
<linearGradient id="paint46_linear_306_449" x1="11.9325" y1="17.2237" x2="5.48823" y2="17.2237" gradientUnits="userSpaceOnUse">
<stop stop-color="#A57D24"/>
<stop offset="0.2112" stop-color="#D8BE62"/>
<stop offset="0.328" stop-color="#F1DD80"/>
<stop offset="0.524" stop-color="#FBF2A8"/>
<stop offset="0.7298" stop-color="#F1DD80"/>
<stop offset="1" stop-color="#A57D24"/>
</linearGradient>
<linearGradient id="paint47_linear_306_449" x1="6.20226" y1="15.1984" x2="3.39842" y2="15.1984" gradientUnits="userSpaceOnUse">
<stop stop-color="#A57D24"/>
<stop offset="0.2112" stop-color="#D8BE62"/>
<stop offset="0.328" stop-color="#F1DD80"/>
<stop offset="0.524" stop-color="#FBF2A8"/>
<stop offset="0.7298" stop-color="#F1DD80"/>
<stop offset="1" stop-color="#A57D24"/>
</linearGradient>
<linearGradient id="paint48_linear_306_449" x1="14.8875" y1="12.1491" x2="7.65496" y2="12.1491" gradientUnits="userSpaceOnUse">
<stop stop-color="#A57D24"/>
<stop offset="0.2112" stop-color="#D8BE62"/>
<stop offset="0.328" stop-color="#F1DD80"/>
<stop offset="0.524" stop-color="#FBF2A8"/>
<stop offset="0.7298" stop-color="#F1DD80"/>
<stop offset="1" stop-color="#A57D24"/>
</linearGradient>
<linearGradient id="paint49_linear_306_449" x1="9.3579" y1="9.57246" x2="6.31449" y2="9.57246" gradientUnits="userSpaceOnUse">
<stop stop-color="#A57D24"/>
<stop offset="0.2112" stop-color="#D8BE62"/>
<stop offset="0.328" stop-color="#F1DD80"/>
<stop offset="0.524" stop-color="#FBF2A8"/>
<stop offset="0.7298" stop-color="#F1DD80"/>
<stop offset="1" stop-color="#A57D24"/>
</linearGradient>
<linearGradient id="paint50_linear_306_449" x1="18.8165" y1="7.49906" x2="10.9047" y2="7.49906" gradientUnits="userSpaceOnUse">
<stop stop-color="#A57D24"/>
<stop offset="0.2112" stop-color="#D8BE62"/>
<stop offset="0.328" stop-color="#F1DD80"/>
<stop offset="0.524" stop-color="#FBF2A8"/>
<stop offset="0.7298" stop-color="#F1DD80"/>
<stop offset="1" stop-color="#A57D24"/>
</linearGradient>
<linearGradient id="paint51_linear_306_449" x1="14.0211" y1="4.41304" x2="10.1903" y2="4.41304" gradientUnits="userSpaceOnUse">
<stop stop-color="#A57D24"/>
<stop offset="0.2112" stop-color="#D8BE62"/>
<stop offset="0.328" stop-color="#F1DD80"/>
<stop offset="0.524" stop-color="#FBF2A8"/>
<stop offset="0.7298" stop-color="#F1DD80"/>
<stop offset="1" stop-color="#A57D24"/>
</linearGradient>
<linearGradient id="paint52_linear_306_449" x1="37.5111" y1="32.8163" x2="4.22183" y2="32.8163" gradientUnits="userSpaceOnUse">
<stop stop-color="#A57D24"/>
<stop offset="0.2112" stop-color="#D8BE62"/>
<stop offset="0.328" stop-color="#F1DD80"/>
<stop offset="0.524" stop-color="#FBF2A8"/>
<stop offset="0.7298" stop-color="#F1DD80"/>
<stop offset="1" stop-color="#A57D24"/>
</linearGradient>
</defs>
</svg>
