<svg width="25" height="24" viewBox="0 0 25 24" fill="none" xmlns="http://www.w3.org/2000/svg">
<path fill-rule="evenodd" clip-rule="evenodd" d="M3.20996 4.875C3.20996 3.839 4.04996 3 5.08496 3H9.58496C10.621 3 11.46 3.84 11.46 4.875V9.375C11.46 10.411 10.62 11.25 9.58496 11.25H5.08496C4.58768 11.25 4.11077 11.0525 3.75914 10.7008C3.40751 10.3492 3.20996 9.87228 3.20996 9.375V4.875ZM5.08496 4.5C4.9855 4.5 4.89012 4.53951 4.8198 4.60984C4.74947 4.68016 4.70996 4.77554 4.70996 4.875V9.375C4.70996 9.582 4.87796 9.75 5.08496 9.75H9.58496C9.68442 9.75 9.7798 9.71049 9.85013 9.64017C9.92045 9.56984 9.95996 9.47446 9.95996 9.375V4.875C9.95996 4.77554 9.92045 4.68016 9.85013 4.60984C9.7798 4.53951 9.68442 4.5 9.58496 4.5H5.08496ZM12.96 4.875C12.96 3.839 13.8 3 14.835 3H19.335C20.37 3 21.21 3.84 21.21 4.875V9.375C21.21 10.411 20.37 11.25 19.335 11.25H14.835C14.3377 11.25 13.8608 11.0525 13.5091 10.7008C13.1575 10.3492 12.96 9.87228 12.96 9.375V4.875ZM14.835 4.5C14.7355 4.5 14.6401 4.53951 14.5698 4.60984C14.4995 4.68016 14.46 4.77554 14.46 4.875V9.375C14.46 9.582 14.628 9.75 14.835 9.75H19.335C19.4344 9.75 19.5298 9.71049 19.6001 9.64017C19.6705 9.56984 19.71 9.47446 19.71 9.375V4.875C19.71 4.77554 19.6705 4.68016 19.6001 4.60984C19.5298 4.53951 19.4344 4.5 19.335 4.5H14.835ZM6.20996 6.75C6.20996 6.55109 6.28898 6.36032 6.42963 6.21967C6.57028 6.07902 6.76105 6 6.95996 6H7.70996C7.90887 6 8.09964 6.07902 8.24029 6.21967C8.38094 6.36032 8.45996 6.55109 8.45996 6.75V7.5C8.45996 7.69891 8.38094 7.88968 8.24029 8.03033C8.09964 8.17098 7.90887 8.25 7.70996 8.25H6.95996C6.76105 8.25 6.57028 8.17098 6.42963 8.03033C6.28898 7.88968 6.20996 7.69891 6.20996 7.5V6.75ZM15.96 6.75C15.96 6.55109 16.039 6.36032 16.1796 6.21967C16.3203 6.07902 16.511 6 16.71 6H17.46C17.6589 6 17.8496 6.07902 17.9903 6.21967C18.1309 6.36032 18.21 6.55109 18.21 6.75V7.5C18.21 7.69891 18.1309 7.88968 17.9903 8.03033C17.8496 8.17098 17.6589 8.25 17.46 8.25H16.71C16.511 8.25 16.3203 8.17098 16.1796 8.03033C16.039 7.88968 15.96 7.69891 15.96 7.5V6.75ZM3.20996 14.625C3.20996 13.589 4.04996 12.75 5.08496 12.75H9.58496C10.621 12.75 11.46 13.59 11.46 14.625V19.125C11.46 20.16 10.62 21 9.58496 21H5.08496C4.58768 21 4.11077 20.8025 3.75914 20.4508C3.40751 20.0992 3.20996 19.6223 3.20996 19.125V14.625ZM5.08496 14.25C4.9855 14.25 4.89012 14.2895 4.8198 14.3598C4.74947 14.4302 4.70996 14.5255 4.70996 14.625V19.125C4.70996 19.332 4.87796 19.5 5.08496 19.5H9.58496C9.68442 19.5 9.7798 19.4605 9.85013 19.3902C9.92045 19.3198 9.95996 19.2245 9.95996 19.125V14.625C9.95996 14.5255 9.92045 14.4302 9.85013 14.3598C9.7798 14.2895 9.68442 14.25 9.58496 14.25H5.08496ZM12.96 13.5C12.96 13.3011 13.039 13.1103 13.1796 12.9697C13.3203 12.829 13.511 12.75 13.71 12.75H14.46C14.6589 12.75 14.8496 12.829 14.9903 12.9697C15.1309 13.1103 15.21 13.3011 15.21 13.5V14.25C15.21 14.4489 15.1309 14.6397 14.9903 14.7803C14.8496 14.921 14.6589 15 14.46 15H13.71C13.511 15 13.3203 14.921 13.1796 14.7803C13.039 14.6397 12.96 14.4489 12.96 14.25V13.5ZM18.96 13.5C18.96 13.3011 19.039 13.1103 19.1796 12.9697C19.3203 12.829 19.511 12.75 19.71 12.75H20.46C20.6589 12.75 20.8496 12.829 20.9903 12.9697C21.1309 13.1103 21.21 13.3011 21.21 13.5V14.25C21.21 14.4489 21.1309 14.6397 20.9903 14.7803C20.8496 14.921 20.6589 15 20.46 15H19.71C19.511 15 19.3203 14.921 19.1796 14.7803C19.039 14.6397 18.96 14.4489 18.96 14.25V13.5ZM6.20996 16.5C6.20996 16.3011 6.28898 16.1103 6.42963 15.9697C6.57028 15.829 6.76105 15.75 6.95996 15.75H7.70996C7.90887 15.75 8.09964 15.829 8.24029 15.9697C8.38094 16.1103 8.45996 16.3011 8.45996 16.5V17.25C8.45996 17.4489 8.38094 17.6397 8.24029 17.7803C8.09964 17.921 7.90887 18 7.70996 18H6.95996C6.76105 18 6.57028 17.921 6.42963 17.7803C6.28898 17.6397 6.20996 17.4489 6.20996 17.25V16.5ZM15.96 16.5C15.96 16.3011 16.039 16.1103 16.1796 15.9697C16.3203 15.829 16.511 15.75 16.71 15.75H17.46C17.6589 15.75 17.8496 15.829 17.9903 15.9697C18.1309 16.1103 18.21 16.3011 18.21 16.5V17.25C18.21 17.4489 18.1309 17.6397 17.9903 17.7803C17.8496 17.921 17.6589 18 17.46 18H16.71C16.511 18 16.3203 17.921 16.1796 17.7803C16.039 17.6397 15.96 17.4489 15.96 17.25V16.5ZM12.96 19.5C12.96 19.3011 13.039 19.1103 13.1796 18.9697C13.3203 18.829 13.511 18.75 13.71 18.75H14.46C14.6589 18.75 14.8496 18.829 14.9903 18.9697C15.1309 19.1103 15.21 19.3011 15.21 19.5V20.25C15.21 20.4489 15.1309 20.6397 14.9903 20.7803C14.8496 20.921 14.6589 21 14.46 21H13.71C13.511 21 13.3203 20.921 13.1796 20.7803C13.039 20.6397 12.96 20.4489 12.96 20.25V19.5ZM18.96 19.5C18.96 19.3011 19.039 19.1103 19.1796 18.9697C19.3203 18.829 19.511 18.75 19.71 18.75H20.46C20.6589 18.75 20.8496 18.829 20.9903 18.9697C21.1309 19.1103 21.21 19.3011 21.21 19.5V20.25C21.21 20.4489 21.1309 20.6397 20.9903 20.7803C20.8496 20.921 20.6589 21 20.46 21H19.71C19.511 21 19.3203 20.921 19.1796 20.7803C19.039 20.6397 18.96 20.4489 18.96 20.25V19.5Z" fill="black"/>
</svg>
