<svg width="25" height="25" viewBox="0 0 25 25" fill="none" xmlns="http://www.w3.org/2000/svg">
<path d="M4.52356 4.69055H9.01356L10.4606 8.30855L8.13556 9.85855C7.99865 9.9499 7.8864 10.0736 7.80877 10.2188C7.73114 10.3639 7.69054 10.526 7.69056 10.6906C7.69356 10.7846 7.69056 10.6916 7.69056 10.6916V10.7126C7.69115 10.7573 7.69316 10.802 7.69656 10.8466C7.70256 10.9286 7.71256 11.0396 7.73156 11.1766C7.77056 11.4466 7.84556 11.8186 7.99156 12.2566C8.28556 13.1366 8.86156 14.2755 9.98356 15.3975C11.1056 16.5196 12.2446 17.0955 13.1236 17.3895C13.5626 17.5355 13.9336 17.6095 14.2056 17.6495C14.3591 17.671 14.5136 17.6843 14.6686 17.6896L14.6816 17.6905H14.6896C14.6896 17.6905 14.8016 17.6846 14.6906 17.6905C14.8762 17.6905 15.0582 17.6387 15.2161 17.541C15.374 17.4433 15.5016 17.3036 15.5846 17.1376L16.2546 15.7976L20.6906 16.5375V20.8575C18.5796 21.1625 12.8776 21.4635 8.39756 16.9835C3.91756 12.5035 4.21756 6.80055 4.52356 4.69055ZM9.76356 11.1766L11.5706 9.97255C11.9523 9.71792 12.2349 9.33977 12.3709 8.90152C12.5069 8.46326 12.4881 7.99157 12.3176 7.56555L10.8706 3.94755C10.7221 3.57646 10.4658 3.25837 10.1348 3.03431C9.8038 2.81026 9.41326 2.69052 9.01356 2.69055H4.47156C3.56256 2.69055 2.70756 3.32155 2.55856 4.30755C2.21856 6.54955 1.75756 13.1716 6.98356 18.3976C12.2096 23.6236 18.8316 23.1615 21.0736 22.8225C22.0596 22.6726 22.6906 21.8186 22.6906 20.9095V16.5375C22.6906 16.0641 22.5227 15.606 22.2167 15.2447C21.9108 14.8834 21.4865 14.6424 21.0196 14.5646L16.5836 13.8256C16.1617 13.7551 15.7283 13.8218 15.3471 14.0158C14.9659 14.2099 14.6569 14.521 14.4656 14.9036L14.1196 15.5965C13.9972 15.5664 13.8761 15.5314 13.7566 15.4915C13.1366 15.2856 12.2756 14.8616 11.3976 13.9836C10.5196 13.1056 10.0956 12.2445 9.88956 11.6236C9.84037 11.4768 9.79865 11.3276 9.76456 11.1766H9.76356Z" fill="#1A84FF"/>
</svg>
