<svg width="25" height="25" viewBox="0 0 25 25" fill="none" xmlns="http://www.w3.org/2000/svg">
<path d="M21.1807 8.21051C21.1751 8.18415 21.1751 8.15687 21.1807 8.13051C21.1759 8.10743 21.1759 8.08359 21.1807 8.06051V7.97051L21.1207 7.82051C21.0964 7.77958 21.066 7.74251 21.0307 7.71051L20.9407 7.63051H20.8907L16.9507 5.14051L13.2307 2.84051C13.1447 2.77224 13.0462 2.7213 12.9407 2.69051H12.8607C12.7714 2.67559 12.6801 2.67559 12.5907 2.69051H12.4907C12.3746 2.7162 12.2632 2.76008 12.1607 2.82051L4.69074 7.47051L4.60074 7.54051L4.51074 7.62051L4.41074 7.69051L4.36074 7.75051L4.30074 7.90051V8.05051C4.29103 8.11682 4.29103 8.1842 4.30074 8.25051V16.9805C4.3004 17.1505 4.34338 17.3177 4.42561 17.4664C4.50785 17.6151 4.62663 17.7404 4.77074 17.8305L12.2707 22.4705L12.4207 22.5305H12.5007C12.6699 22.5842 12.8516 22.5842 13.0207 22.5305H13.1007L13.2507 22.4705L20.6907 17.9005C20.8349 17.8104 20.9536 17.6851 21.0359 17.5364C21.1181 17.3877 21.1611 17.2205 21.1607 17.0505V8.32051C21.1607 8.32051 21.1807 8.25051 21.1807 8.21051ZM12.6907 4.86051L14.4707 5.96051L8.88074 9.42051L7.09074 8.32051L12.6907 4.86051ZM11.6907 19.8605L6.19074 16.5005V10.1105L11.6907 13.5105V19.8605ZM12.6907 11.7505L10.7807 10.6005L16.3707 7.13051L18.2907 8.32051L12.6907 11.7505ZM19.1907 16.4705L13.6907 19.8905V13.5105L19.1907 10.1105V16.4705Z" fill="#1A84FF"/>
</svg>
