<svg width="25" height="25" viewBox="0 0 25 25" fill="none" xmlns="http://www.w3.org/2000/svg">
<path d="M12.6906 8.94055C11.9489 8.94055 11.2238 9.16049 10.6072 9.57254C9.99048 9.9846 9.50983 10.5703 9.226 11.2555C8.94217 11.9407 8.86791 12.6947 9.01261 13.4221C9.1573 14.1496 9.51445 14.8178 10.0389 15.3422C10.5633 15.8666 11.2315 16.2238 11.959 16.3685C12.6864 16.5132 13.4404 16.4389 14.1256 16.1551C14.8108 15.8713 15.3965 15.3906 15.8086 14.7739C16.2206 14.1573 16.4406 13.4322 16.4406 12.6906C16.4406 11.696 16.0455 10.7422 15.3422 10.0389C14.6389 9.33564 13.6851 8.94055 12.6906 8.94055ZM12.6906 14.9406C12.2455 14.9406 11.8105 14.8086 11.4405 14.5614C11.0705 14.3141 10.7821 13.9627 10.6118 13.5516C10.4415 13.1405 10.397 12.6881 10.4838 12.2516C10.5706 11.8151 10.7849 11.4142 11.0996 11.0996C11.4142 10.7849 11.8151 10.5706 12.2516 10.4838C12.6881 10.397 13.1405 10.4415 13.5516 10.6118C13.9627 10.7821 14.3141 11.0705 14.5614 11.4405C14.8086 11.8105 14.9406 12.2455 14.9406 12.6906C14.9406 13.2873 14.7035 13.8596 14.2815 14.2815C13.8596 14.7035 13.2873 14.9406 12.6906 14.9406ZM23.1906 5.94055H2.19055C1.99164 5.94055 1.80087 6.01957 1.66022 6.16022C1.51957 6.30087 1.44055 6.49164 1.44055 6.69055V18.6906C1.44055 18.8895 1.51957 19.0802 1.66022 19.2209C1.80087 19.3615 1.99164 19.4406 2.19055 19.4406H23.1906C23.3895 19.4406 23.5802 19.3615 23.7209 19.2209C23.8615 19.0802 23.9406 18.8895 23.9406 18.6906V6.69055C23.9406 6.49164 23.8615 6.30087 23.7209 6.16022C23.5802 6.01957 23.3895 5.94055 23.1906 5.94055ZM18.8452 17.9406H6.53586C6.28406 17.0889 5.82318 16.3138 5.19522 15.6859C4.56726 15.0579 3.79217 14.597 2.94055 14.3452V11.0359C3.79217 10.7841 4.56726 10.3232 5.19522 9.69522C5.82318 9.06726 6.28406 8.29217 6.53586 7.44055H18.8452C19.097 8.29217 19.5579 9.06726 20.1859 9.69522C20.8138 10.3232 21.5889 10.7841 22.4406 11.0359V14.3452C21.5889 14.597 20.8138 15.0579 20.1859 15.6859C19.5579 16.3138 19.097 17.0889 18.8452 17.9406ZM22.4406 9.44399C21.541 9.05717 20.8239 8.34014 20.4371 7.44055H22.4406V9.44399ZM4.94399 7.44055C4.55717 8.34014 3.84014 9.05717 2.94055 9.44399V7.44055H4.94399ZM2.94055 15.9371C3.84014 16.3239 4.55717 17.041 4.94399 17.9406H2.94055V15.9371ZM20.4371 17.9406C20.8239 17.041 21.541 16.3239 22.4406 15.9371V17.9406H20.4371Z" fill="#1A84FF"/>
</svg>
