<svg width="25" height="25" viewBox="0 0 25 25" fill="none" xmlns="http://www.w3.org/2000/svg">
<path d="M17.6907 4.02837C20.6797 5.7574 22.6907 8.98915 22.6907 12.6906M17.6907 4.02837V7.69055M17.6907 4.02837H21.3529M21.3529 17.6905C19.6238 20.6795 16.3921 22.6905 12.6907 22.6905M21.3529 17.6905H17.6907M21.3529 17.6905V21.3528M7.69067 21.3528C4.70167 19.6237 2.69067 16.392 2.69067 12.6906M7.69067 21.3528V17.6905M7.69067 21.3528H4.02849M4.02849 7.69055C5.75752 4.70155 8.98927 2.69055 12.6907 2.69055M4.02849 7.69055H7.69067M4.02849 7.69055V4.02837" stroke="#1A84FF" stroke-width="2" stroke-linecap="round" stroke-linejoin="round"/>
<path d="M21.3529 17.6906C19.6238 20.6796 16.3921 22.6906 12.6907 22.6906M21.3529 17.6906H17.6907M21.3529 17.6906V21.3528" stroke="#1A84FF" stroke-width="2" stroke-linecap="round" stroke-linejoin="round"/>
<path d="M7.69067 21.3528C4.70167 19.6237 2.69067 16.392 2.69067 12.6906M7.69067 21.3528V17.6906M7.69067 21.3528H4.02849" stroke="#1A84FF" stroke-width="2" stroke-linecap="round" stroke-linejoin="round"/>
<path d="M4.02856 7.69055C5.75762 4.70155 8.98932 2.69055 12.6907 2.69055M4.02856 7.69055H7.69072M4.02856 7.69055V4.02837" stroke="#1A84FF" stroke-width="2" stroke-linecap="round" stroke-linejoin="round"/>
<path d="M17.6907 4.02844C20.6797 5.7575 22.6907 8.9892 22.6907 12.6906M17.6907 4.02844V7.6906M17.6907 4.02844H21.3529" stroke="#1A84FF" stroke-width="2" stroke-linecap="round" stroke-linejoin="round"/>
</svg>
