<svg width="25" height="25" viewBox="0 0 25 25" fill="none" xmlns="http://www.w3.org/2000/svg">
<path d="M11.0156 5.00755C11.4416 3.25155 13.9396 3.25155 14.3656 5.00755C14.4295 5.27135 14.5548 5.51633 14.7313 5.72255C14.9078 5.92877 15.1304 6.09041 15.3812 6.1943C15.632 6.29819 15.9037 6.3414 16.1743 6.32042C16.445 6.29944 16.7068 6.21485 16.9386 6.07355C18.4816 5.13355 20.2486 6.89955 19.3086 8.44355C19.1675 8.67521 19.083 8.93689 19.0621 9.20732C19.0411 9.47776 19.0843 9.74932 19.1881 9.99993C19.2919 10.2505 19.4533 10.4731 19.6593 10.6496C19.8653 10.8261 20.11 10.9515 20.3736 11.0156C22.1296 11.4416 22.1296 13.9396 20.3736 14.3656C20.1098 14.4295 19.8648 14.5548 19.6586 14.7313C19.4523 14.9078 19.2907 15.1304 19.1868 15.3812C19.0829 15.632 19.0397 15.9037 19.0607 16.1743C19.0817 16.445 19.1662 16.7068 19.3076 16.9386C20.2476 18.4816 18.4816 20.2486 16.9376 19.3086C16.7059 19.1675 16.4442 19.083 16.1738 19.0621C15.9033 19.0411 15.6318 19.0843 15.3812 19.1881C15.1306 19.2919 14.908 19.4533 14.7315 19.6593C14.555 19.8653 14.4296 20.11 14.3656 20.3736C13.9396 22.1296 11.4416 22.1296 11.0156 20.3736C10.9516 20.1098 10.8263 19.8648 10.6498 19.6586C10.4734 19.4523 10.2507 19.2907 9.9999 19.1868C9.74914 19.0829 9.47739 19.0397 9.20677 19.0607C8.93615 19.0817 8.6743 19.1662 8.44255 19.3076C6.89955 20.2476 5.13255 18.4816 6.07255 16.9376C6.21365 16.7059 6.2981 16.4442 6.31904 16.1738C6.33997 15.9033 6.2968 15.6318 6.19302 15.3812C6.08925 15.1306 5.92781 14.908 5.72182 14.7315C5.51584 14.555 5.27112 14.4296 5.00755 14.3656C3.25155 13.9396 3.25155 11.4416 5.00755 11.0156C5.27135 10.9516 5.51633 10.8263 5.72255 10.6498C5.92877 10.4734 6.09041 10.2507 6.1943 9.9999C6.29819 9.74914 6.3414 9.47739 6.32042 9.20677C6.29944 8.93615 6.21485 8.6743 6.07355 8.44255C5.13355 6.89955 6.89955 5.13255 8.44355 6.07255C9.44355 6.68055 10.7396 6.14255 11.0156 5.00755Z" stroke="#1A84FF" stroke-width="2" stroke-linecap="round" stroke-linejoin="round"/>
<path d="M9.69055 12.6906C9.69055 13.4862 10.0066 14.2493 10.5692 14.8119C11.1318 15.3745 11.8949 15.6906 12.6906 15.6906C13.4862 15.6906 14.2493 15.3745 14.8119 14.8119C15.3745 14.2493 15.6906 13.4862 15.6906 12.6906C15.6906 11.8949 15.3745 11.1318 14.8119 10.5692C14.2493 10.0066 13.4862 9.69055 12.6906 9.69055C11.8949 9.69055 11.1318 10.0066 10.5692 10.5692C10.0066 11.1318 9.69055 11.8949 9.69055 12.6906Z" stroke="#1A84FF" stroke-width="2" stroke-linecap="round" stroke-linejoin="round"/>
</svg>
