<svg width="57" height="57" viewBox="0 0 57 57" fill="none" xmlns="http://www.w3.org/2000/svg">
<rect x="0.0883789" y="0.881836" width="56" height="56" rx="28" fill="#60D669"/>
<g clip-path="url(#clip0_403_194)">
<path d="M8.31626 28.5328C8.31526 32.1367 9.25692 35.6556 11.0475 38.7572L8.14502 49.3544L18.99 46.5109C21.9896 48.1438 25.3504 48.9995 28.7657 48.9997H28.7746C40.0491 48.9997 49.2267 39.8253 49.2315 28.5489C49.2337 23.0847 47.1076 17.9465 43.2449 14.0808C39.3829 10.2154 34.2465 8.08556 28.7738 8.08307C17.4981 8.08307 8.32091 17.2569 8.31626 28.5328Z" fill="url(#paint0_linear_403_194)"/>
<path d="M7.58292 28.5261C7.58176 32.2597 8.55716 35.9044 10.4115 39.1171L7.40503 50.0943L18.6389 47.1488C21.7342 48.8364 25.2192 49.7262 28.7653 49.7275H28.7745C40.4534 49.7275 49.9607 40.2232 49.9657 28.5431C49.9677 22.8825 47.7652 17.5596 43.7645 13.5554C39.7633 9.55173 34.4432 7.34522 28.7745 7.3429C17.0936 7.3429 7.58757 16.8459 7.58292 28.5261ZM14.2729 38.5638L13.8535 37.898C12.0902 35.0943 11.1595 31.8543 11.1608 28.5275C11.1647 18.8191 19.0657 10.9207 28.7811 10.9207C33.4861 10.9226 37.9077 12.7567 41.2334 16.0845C44.559 19.4125 46.3889 23.8365 46.3878 28.5418C46.3835 38.2501 38.4823 46.1496 28.7745 46.1496H28.7675C25.6065 46.1479 22.5064 45.299 19.8028 43.6949L19.1594 43.3133L12.493 45.0611L14.2729 38.5638Z" fill="url(#paint1_linear_403_194)"/>
<path d="M23.4807 19.6701C23.084 18.7884 22.6665 18.7706 22.2893 18.7552C21.9804 18.7419 21.6273 18.7429 21.2745 18.7429C20.9214 18.7429 20.3476 18.8757 19.8627 19.4052C19.3772 19.9352 18.0093 21.216 18.0093 23.8211C18.0093 26.4262 19.9067 28.9438 20.1712 29.2974C20.4361 29.6504 23.8343 35.1673 29.2162 37.2897C33.6891 39.0535 34.5993 38.7027 35.57 38.6142C36.541 38.5261 38.7029 37.3337 39.144 36.0973C39.5854 34.8611 39.5854 33.8014 39.453 33.5799C39.3207 33.3593 38.9676 33.2268 38.4381 32.9621C37.9084 32.6973 35.3052 31.4163 34.8199 31.2396C34.3345 31.063 33.9815 30.9749 33.6284 31.5051C33.2753 32.0344 32.2613 33.2268 31.9522 33.5799C31.6435 33.9339 31.3344 33.9779 30.8051 33.7131C30.2752 33.4474 28.57 32.889 26.5468 31.0853C24.9728 29.6818 23.9101 27.9486 23.6012 27.4184C23.2923 26.8891 23.5681 26.6021 23.8336 26.3383C24.0715 26.1011 24.3633 25.72 24.6283 25.4109C24.8923 25.1017 24.9804 24.8811 25.157 24.528C25.3337 24.1745 25.2453 23.8653 25.1131 23.6004C24.9804 23.3356 23.9515 20.717 23.4807 19.6701Z" fill="white"/>
</g>
<defs>
<linearGradient id="paint0_linear_403_194" x1="2062.47" y1="4135.22" x2="2062.47" y2="8.08307" gradientUnits="userSpaceOnUse">
<stop stop-color="#1FAF38"/>
<stop offset="1" stop-color="#60D669"/>
</linearGradient>
<linearGradient id="paint1_linear_403_194" x1="2135.44" y1="4282.48" x2="2135.44" y2="7.3429" gradientUnits="userSpaceOnUse">
<stop stop-color="#F9F9F9"/>
<stop offset="1" stop-color="white"/>
</linearGradient>
<clipPath id="clip0_403_194">
<rect width="42.8932" height="42.8932" fill="white" transform="translate(7.23926 7.34296)"/>
</clipPath>
</defs>
</svg>
