<svg width="147" height="36" viewBox="0 0 147 36" fill="none" xmlns="http://www.w3.org/2000/svg">
<path d="M17.8324 19.5331L22.5412 20.8472L10.3859 22.2708L18.7084 0.916931H24.4028L31.5208 19.9711L25.7169 20.8472L21.3366 9.12994L17.8324 19.5331Z" fill="white"/>
<path d="M31.8493 21.5042L0.0922852 29.7172L7.97678 29.2792L6.11516 34.8641L11.919 35.0831L14.2187 28.9507H28.2355L30.7542 34.8641L36.5581 34.645L31.8493 21.5042Z" fill="white"/>
<path d="M39.3442 34.8858V9.46291H44.9512V34.8858H39.3442ZM37.0805 13.5724V9.46291H44.9512V13.5724H37.0805ZM60.9164 34.8858V29.244H59.9761V23.1147C59.9761 22.1395 59.7439 21.4082 59.2796 20.9206C58.8152 20.4331 58.0723 20.1893 57.0507 20.1893C56.5399 20.1893 55.8666 20.2009 55.0308 20.2241C54.195 20.2473 53.3359 20.2822 52.4537 20.3286C51.5714 20.375 50.7704 20.4215 50.0507 20.4679V15.7664C50.5847 15.72 51.2116 15.6735 51.9313 15.6271C52.651 15.5807 53.394 15.5458 54.1602 15.5226C54.9263 15.4994 55.6461 15.4878 56.3194 15.4878C58.2696 15.4878 59.9064 15.7664 61.2298 16.3236C62.5764 16.8808 63.598 17.7283 64.2945 18.8659C64.991 19.9803 65.3393 21.4198 65.3393 23.1843V34.8858H60.9164ZM54.8219 35.3734C53.452 35.3734 52.2447 35.1296 51.2 34.642C50.1784 34.1545 49.3774 33.458 48.797 32.5525C48.2165 31.6238 47.9263 30.521 47.9263 29.244C47.9263 27.851 48.2862 26.7133 49.0059 25.8311C49.7257 24.9256 50.7356 24.2639 52.0358 23.846C53.3359 23.4049 54.8335 23.1843 56.5283 23.1843H60.603V26.2838H56.4935C55.5184 26.2838 54.7638 26.5276 54.2298 27.0152C53.719 27.4795 53.4636 28.118 53.4636 28.9306C53.4636 29.6968 53.719 30.3236 54.2298 30.8112C54.7638 31.2755 55.5184 31.5077 56.4935 31.5077C57.1204 31.5077 57.6776 31.4032 58.1651 31.1943C58.6759 30.9621 59.0938 30.579 59.4189 30.045C59.7439 29.511 59.9297 28.7681 59.9761 27.8162L61.2995 29.2092C61.1834 30.5326 60.8583 31.647 60.3243 32.5525C59.8136 33.458 59.0938 34.1545 58.1651 34.642C57.2597 35.1296 56.1452 35.3734 54.8219 35.3734ZM78.042 35.1296C76.115 35.1296 74.5594 34.8974 73.3754 34.4331C72.1913 33.9455 71.3206 33.1445 70.7634 32.0301C70.2294 30.8925 69.9624 29.3601 69.9624 27.4331V10.647H75.1515V27.642C75.1515 28.5475 75.3837 29.244 75.848 29.7316C76.3356 30.1959 77.0205 30.4281 77.9027 30.4281H80.7236V35.1296H78.042ZM67.0719 19.8759V15.8012H80.7236V19.8759H67.0719ZM83.7742 34.8858V15.8012H88.197V23.9853H88.0926C88.0926 21.2921 88.6614 19.2142 89.799 17.7515C90.9599 16.2888 92.6315 15.5574 94.814 15.5574H95.5453V20.3634H94.1523C92.6199 20.3634 91.4359 20.7813 90.6 21.6172C89.7642 22.4298 89.3463 23.6138 89.3463 25.1694V34.8858H83.7742ZM106.97 35.4038C105.171 35.4038 103.599 35.0948 102.254 34.4769C100.928 33.8408 99.828 33.0139 98.9556 31.9961C98.0832 30.9602 97.429 29.8425 96.9928 28.6429C96.5748 27.4434 96.3658 26.2894 96.3658 25.1807V24.581C96.3658 23.3451 96.5839 22.1274 97.02 20.9279C97.4744 19.7103 98.1468 18.6107 99.0374 17.6293C99.9279 16.6479 101.037 15.8664 102.363 15.2848C103.69 14.6851 105.226 14.3852 106.97 14.3852C108.715 14.3852 110.251 14.6851 111.578 15.2848C112.904 15.8664 114.013 16.6479 114.904 17.6293C115.794 18.6107 116.467 19.7103 116.921 20.9279C117.375 22.1274 117.602 23.3451 117.602 24.581V25.1807C117.602 26.2894 117.384 27.4434 116.948 28.6429C116.512 29.8425 115.858 30.9602 114.985 31.9961C114.113 33.0139 113.004 33.8408 111.659 34.4769C110.333 35.0948 108.77 35.4038 106.97 35.4038ZM106.97 31.2328C107.916 31.2328 108.761 31.0692 109.506 30.7421C110.269 30.4149 110.914 29.9606 111.441 29.379C111.987 28.7974 112.396 28.125 112.668 27.3617C112.941 26.5983 113.077 25.7805 113.077 24.9081C113.077 23.9812 112.932 23.1361 112.641 22.3728C112.368 21.5913 111.959 20.9188 111.414 20.3554C110.887 19.7739 110.251 19.3286 109.506 19.0196C108.761 18.7107 107.916 18.5562 106.97 18.5562C106.025 18.5562 105.18 18.7107 104.435 19.0196C103.69 19.3286 103.045 19.7739 102.5 20.3554C101.973 20.9188 101.573 21.5913 101.3 22.3728C101.027 23.1361 100.891 23.9812 100.891 24.9081C100.891 25.7805 101.027 26.5983 101.3 27.3617C101.573 28.125 101.973 28.7974 102.5 29.379C103.045 29.9606 103.69 30.4149 104.435 30.7421C105.18 31.0692 106.025 31.2328 106.97 31.2328ZM120.751 34.8858V15.8017H125.174V23.9856H124.861C124.861 22.0354 125.105 20.4102 125.592 19.1101C126.103 17.8099 126.869 16.8348 127.891 16.1848C128.912 15.5347 130.154 15.2097 131.617 15.2097H131.861C134.089 15.2097 135.784 15.941 136.945 17.4036C138.129 18.8431 138.721 21.0371 138.721 23.9856V34.8858H133.149V23.6722C133.149 22.6506 132.847 21.8148 132.244 21.1648C131.64 20.5147 130.828 20.1897 129.806 20.1897C128.761 20.1897 127.914 20.5263 127.264 21.1996C126.637 21.8496 126.323 22.7087 126.323 23.7766V34.8858H120.751Z" fill="white"/>
</svg>
